<?xml version="1.0" encoding="utf-8"?>
<!-- Generator: Adobe Illustrator 22.0.0, SVG Export Plug-In . SVG Version: 6.00 Build 0)  -->
<svg version="1.1" xmlns="http://www.w3.org/2000/svg" xmlns:xlink="http://www.w3.org/1999/xlink" x="0px" y="0px"
	 viewBox="0 0 360.8 333.4" style="enable-background:new 0 0 360.8 333.4;" xml:space="preserve">
<style type="text/css">
	.st0{opacity:0.8;fill:url(#SVGID_1_);}
	.st1{fill:#C7C8C9;}
	.st2{fill:#F1F1F2;}
	.st3{fill:#DBDBDB;}
	.st4{opacity:0.8;fill:url(#SVGID_2_);}
	.st5{opacity:0.1;clip-path:url(#SVGID_4_);}
	.st6{clip-path:url(#SVGID_4_);}
	.st7{fill:#F9FBFC;}
</style>
<g id="BACKGROUND_2">
	<g>
		<g>
			<g>
				<path class="st3" d="M213.1,221h-3.2v-3.5h-1v-5.3h-1.4v5.3h-1v3.5h-3.2v-3.5h-1v-5.3h-1.4v5.3h-1v3.5h-3.2v-3.5h-1v-5.3h-1.4
					v5.3h-1v3.5H190v-3.5h-1v-5.3h-1.4v5.3h-1v3.5h-3.2v-3.5h-1v-5.3H181v5.3h-1v3.5h-3.2v-3.5h-1v-5.3h-1.4v5.3h-1v3.5h-3.2v-3.5
					h-1v-5.3h-1.4v5.3h-1v3.5h-3.2v-3.5h-1v-5.3h-1.4v5.3h-1v3.5H157v-3.5h-1v-5.3h-1.4v5.3h-1v3.5h-3.2v-3.5h-1v-5.3H148v5.3h-1
					v3.5h-3.2v-3.5h-1v-5.3c-5.4-0.3-9.8-4.3-10.6-9.7h-4.5v-1.2h-3.8V198h3.8v-0.8h4.4v-1.4h-4.4v-1.2h-3.8v-3.2h3.8v-0.8h4.4v-1.4
					h-4.4V188h-3.8v-3.2h3.8V184h4.4v-1.4h-4.4v-1.2h-3.8v-3.2h3.8v-0.8h4.4V176h-4.4v-1.2h-3.8v-3.2h3.8v-0.8h4.4v-1.4h-4.4v-1.2
					h-3.8v-3.2h3.8v-0.8h4.4v-1.4h-4.4v-1.2h-3.8v-3.2h3.8v-0.8h4.4v-1.4h-4.4v-1.2h-3.8v-3.2h3.8v-0.8h4.4v-1.4h-4.4v-1.2h-3.8
					v-3.2h3.8v-0.8h4.4v-1.4h-4.4v-1.2h-3.8v-3.2h3.8v-0.8h4.4v-1.4h-4.4v-1.2h-3.8v-3.2h3.8v-0.8h4.6c1-5.1,5.3-8.8,10.5-9.1v-6h1
					v-4h3.2v4h1v5.9h1.4V116h1v-4h3.2v4h1v5.9h1.4V116h1v-4h3.2v4h1v5.9h1.4V116h1v-4h3.2v4h1v5.9h1.4V116h1v-4h3.2v4h1v5.9h1.4V116
					h1v-4h3.2v4h1v5.9h1.4V116h1v-4h3.2v4h1v5.9h1.4V116h1v-4h3.2v4h1v5.9h1.4V116h1v-4h3.2v4h1v5.9h1.4V116h1v-4h3.2v4h1v5.9h1.4
					V116h1v-4h3.2v4h1v6c5.2,0.3,9.5,4,10.5,9.1h4.6v0.8h3.8v3.2h-3.8v1.2h-4.4v1.4h4.4v0.8h3.8v3.2h-3.8v1.2h-4.4v1.4h4.4v0.8h3.8
					v3.2h-3.8v1.2h-4.4v1.4h4.4v0.8h3.8v3.2h-3.8v1.2h-4.4v1.4h4.4v0.8h3.8v3.2h-3.8v1.2h-4.4v1.4h4.4v0.8h3.8v3.2h-3.8v1.2h-4.4
					v1.4h4.4v0.8h3.8v3.2h-3.8v1.2h-4.4v1.4h4.4v0.8h3.8v3.2h-3.8v1.2h-4.4v1.4h4.4v0.8h3.8v3.2h-3.8v1.2h-4.4v1.4h4.4v0.8h3.8v3.2
					h-3.8v1.2h-4.4v1.4h4.4v0.8h3.8v3.2h-3.8v1.2h-4.5c-0.7,5.4-5.2,9.4-10.6,9.7v5.3h-1V221z M210.8,220.1h1.3v-3.5h1v-5.3l0.5,0
					c5.3,0,9.6-4,10.1-9.3l0-0.4h4.4v-1.2h3.8v-1.3h-3.8v-0.8h-4.4v-3.3h4.4v-1.2h3.8v-1.3h-3.8v-0.8h-4.4v-3.3h4.4V187h3.8v-1.3
					h-3.8v-0.8h-4.4v-3.3h4.4v-1.2h3.8v-1.3h-3.8v-0.8h-4.4V175h4.4v-1.2h3.8v-1.3h-3.8v-0.8h-4.4v-3.3h4.4v-1.2h3.8v-1.3h-3.8v-0.8
					h-4.4v-3.3h4.4v-1.2h3.8v-1.3h-3.8v-0.8h-4.4v-3.3h4.4v-1.2h3.8v-1.3h-3.8v-0.8h-4.4v-3.3h4.4v-1.2h3.8V146h-3.8v-0.8h-4.4V142
					h4.4v-1.2h3.8v-1.3h-3.8v-0.8h-4.4v-3.3h4.4v-1.2h3.8v-1.3h-3.8V132h-4.5l-0.1-0.4c-0.8-5-5-8.7-10.1-8.7l-0.5,0V117h-1v-4h-1.3
					v4h-1v5.9h-3.3V117h-1v-4h-1.3v4h-1v5.9h-3.3V117h-1v-4h-1.3v4h-1v5.9h-3.3V117h-1v-4H191v4h-1v5.9h-3.3V117h-1v-4h-1.3v4h-1
					v5.9h-3.3V117h-1v-4h-1.3v4h-1v5.9h-3.3V117h-1v-4h-1.3v4h-1v5.9h-3.3V117h-1v-4h-1.3v4h-1v5.9h-3.3V117h-1v-4h-1.3v4h-1v5.9
					h-3.3V117h-1v-4h-1.3v4h-1v5.9H147V117h-1v-4h-1.3v4h-1v5.9l-0.5,0c-5.1,0-9.3,3.7-10.1,8.7l-0.1,0.4h-4.5v0.8h-3.8v1.3h3.8v1.2
					h4.4v3.3h-4.4v0.8h-3.8v1.3h3.8v1.2h4.4v3.3h-4.4v0.8h-3.8v1.3h3.8v1.2h4.4v3.3h-4.4v0.8h-3.8v1.3h3.8v1.2h4.4v3.3h-4.4v0.8
					h-3.8v1.3h3.8v1.2h4.4v3.3h-4.4v0.8h-3.8v1.3h3.8v1.2h4.4v3.3h-4.4v0.8h-3.8v1.3h3.8v1.2h4.4v3.3h-4.4v0.8h-3.8v1.3h3.8v1.2h4.4
					v3.3h-4.4v0.8h-3.8v1.3h3.8v1.2h4.4v3.3h-4.4v0.8h-3.8v1.3h3.8v1.2h4.4v3.3h-4.4v0.8h-3.8v1.3h3.8v1.2h4.4l0,0.4
					c0.5,5.2,4.9,9.2,10.1,9.3l0.5,0v5.3h1v3.5h1.3v-3.5h1v-5.3h3.3v5.3h1v3.5h1.3v-3.5h1v-5.3h3.3v5.3h1v3.5h1.3v-3.5h1v-5.3h3.3
					v5.3h1v3.5h1.3v-3.5h1v-5.3h3.3v5.3h1v3.5h1.3v-3.5h1v-5.3h3.3v5.3h1v3.5h1.3v-3.5h1v-5.3h3.3v5.3h1v3.5h1.3v-3.5h1v-5.3h3.3
					v5.3h1v3.5h1.3v-3.5h1v-5.3h3.3v5.3h1v3.5h1.3v-3.5h1v-5.3h3.3v5.3h1v3.5h1.3v-3.5h1v-5.3h3.3v5.3h1V220.1z"/>
			</g>
			<g>
				<path class="st3" d="M207,200.1h-57.1c-3.6,0-6.6-3-6.6-6.6v-53.9c0-3.6,3-6.6,6.6-6.6H207c3.6,0,6.6,3,6.6,6.6v53.9
					C213.6,197.1,210.6,200.1,207,200.1z M149.9,133.9c-3.1,0-5.6,2.5-5.6,5.7v53.9c0,3.1,2.5,5.6,5.6,5.6H207
					c3.1,0,5.6-2.5,5.6-5.6v-53.9c0-3.1-2.5-5.7-5.6-5.7H149.9z"/>
			</g>
			<g>
				<g>
					<g>
						<g>
							<path class="st3" d="M137.6,133.4l-0.1-0.1c-1.2-1.5-1.1-3.6,0.2-4.9c1.3-1.3,3.5-1.5,4.9-0.2l0.1,0.1L137.6,133.4z
								 M140.4,127.5c-0.9,0-1.8,0.3-2.4,1c-1.2,1.2-1.4,3.1-0.3,4.5l4.8-4.8C141.8,127.7,141.1,127.5,140.4,127.5z"/>
						</g>
						<g>
							<path class="st3" d="M140.4,134.7c-0.8,0-1.5-0.2-2.2-0.7l-0.1-0.1l5.2-5.2l0.1,0.1c1.1,1.5,0.9,3.5-0.4,4.8
								C142.2,134.3,141.3,134.7,140.4,134.7z M138.4,133.8c1.4,0.9,3.2,0.7,4.3-0.4c1.2-1.2,1.3-3,0.4-4.3L138.4,133.8z"/>
						</g>
					</g>
					<g>
						<g>
							<path class="st3" d="M137.6,204.5l-0.1-0.1c-1.2-1.5-1.1-3.6,0.2-4.9c1.3-1.3,3.5-1.5,4.9-0.2l0.1,0.1L137.6,204.5z
								 M140.4,198.6c-0.9,0-1.8,0.3-2.4,1c-1.2,1.2-1.4,3.1-0.3,4.5l4.8-4.8C141.8,198.9,141.1,198.6,140.4,198.6z"/>
						</g>
						<g>
							<path class="st3" d="M140.4,205.8c-0.8,0-1.5-0.2-2.2-0.7l-0.1-0.1l5.2-5.2l0.1,0.1c1.1,1.5,0.9,3.5-0.4,4.8
								C142.2,205.4,141.3,205.8,140.4,205.8z M138.4,204.9c1.4,0.9,3.2,0.7,4.3-0.4c1.2-1.2,1.3-3,0.4-4.3L138.4,204.9z"/>
						</g>
					</g>
				</g>
				<g>
					<g>
						<g>
							<path class="st3" d="M213.7,133.4l-0.1-0.1c-1.2-1.5-1.1-3.6,0.2-4.9c1.3-1.3,3.5-1.5,4.9-0.2l0.1,0.1L213.7,133.4z
								 M216.5,127.5c-0.9,0-1.8,0.3-2.4,1c-1.2,1.2-1.4,3.1-0.3,4.5l4.8-4.8C217.9,127.7,217.2,127.5,216.5,127.5z"/>
						</g>
						<g>
							<path class="st3" d="M216.5,134.7c-0.8,0-1.5-0.2-2.2-0.7l-0.1-0.1l5.2-5.2l0.1,0.1c1.1,1.5,0.9,3.5-0.4,4.8
								C218.4,134.3,217.4,134.7,216.5,134.7z M214.6,133.8c1.4,0.9,3.2,0.7,4.3-0.4c1.2-1.2,1.3-3,0.4-4.3L214.6,133.8z"/>
						</g>
					</g>
					<g>
						<g>
							<path class="st3" d="M213.7,204.5l-0.1-0.1c-1.2-1.5-1.1-3.6,0.2-4.9s3.5-1.5,4.9-0.2l0.1,0.1L213.7,204.5z M216.5,198.6
								c-0.9,0-1.8,0.3-2.4,1c-1.2,1.2-1.4,3.1-0.3,4.5l4.8-4.8C217.9,198.9,217.2,198.6,216.5,198.6z"/>
						</g>
						<g>
							<path class="st3" d="M216.5,205.8c-0.8,0-1.5-0.2-2.2-0.7l-0.1-0.1l5.2-5.2l0.1,0.1c1.1,1.5,0.9,3.5-0.4,4.8
								C218.4,205.4,217.4,205.8,216.5,205.8z M214.6,204.9c1.4,0.9,3.2,0.7,4.3-0.4c1.2-1.2,1.3-3,0.4-4.3L214.6,204.9z"/>
						</g>
					</g>
				</g>
			</g>
		</g>
		<g>
			<polygon class="st3" points="145.4,112.8 125.6,91.2 101.7,91.2 96.3,96.6 74.2,96.6 74.2,95.6 95.9,95.6 101.3,90.3 126,90.3 
				146.1,112.2 			"/>
		</g>
		<g>
			<circle class="st3" cx="71" cy="96.1" r="3.3"/>
		</g>
		<g>
			<circle class="st3" cx="127.7" cy="21.2" r="3.3"/>
		</g>
		<g>
			<path class="st3" d="M144.4,32.6c-2.1,0-3.8-1.7-3.8-3.8c0-2.1,1.7-3.8,3.8-3.8c2.1,0,3.8,1.7,3.8,3.8
				C148.2,30.9,146.5,32.6,144.4,32.6z M144.4,26c-1.5,0-2.8,1.3-2.8,2.8c0,1.5,1.3,2.8,2.8,2.8c1.5,0,2.8-1.3,2.8-2.8
				C147.2,27.3,145.9,26,144.4,26z"/>
		</g>
		<g>
			<path class="st3" d="M157.3,18.3c-2.1,0-3.8-1.7-3.8-3.8c0-2.1,1.7-3.8,3.8-3.8c2.1,0,3.8,1.7,3.8,3.8
				C161.1,16.7,159.4,18.3,157.3,18.3z M157.3,11.8c-1.5,0-2.8,1.3-2.8,2.8c0,1.5,1.3,2.8,2.8,2.8c1.5,0,2.8-1.3,2.8-2.8
				C160.1,13,158.9,11.8,157.3,11.8z"/>
		</g>
		<g>
			<path class="st3" d="M165.7,42.1c-2.1,0-3.8-1.7-3.8-3.8c0-2.1,1.7-3.8,3.8-3.8c2.1,0,3.8,1.7,3.8,3.8
				C169.5,40.4,167.8,42.1,165.7,42.1z M165.7,35.5c-1.5,0-2.8,1.3-2.8,2.8s1.3,2.8,2.8,2.8c1.5,0,2.8-1.3,2.8-2.8
				S167.3,35.5,165.7,35.5z"/>
		</g>
		<g>
			<path class="st3" d="M191.6,56.1c-2.1,0-3.8-1.7-3.8-3.8c0-2.1,1.7-3.8,3.8-3.8c2.1,0,3.8,1.7,3.8,3.8
				C195.3,54.4,193.6,56.1,191.6,56.1z M191.6,49.5c-1.5,0-2.8,1.3-2.8,2.8s1.3,2.8,2.8,2.8s2.8-1.3,2.8-2.8S193.1,49.5,191.6,49.5z
				"/>
		</g>
		<g>
			<path class="st3" d="M257.5,34.5c-2.1,0-3.8-1.7-3.8-3.8c0-2.1,1.7-3.8,3.8-3.8c2.1,0,3.8,1.7,3.8,3.8
				C261.3,32.8,259.6,34.5,257.5,34.5z M257.5,27.9c-1.5,0-2.8,1.3-2.8,2.8c0,1.5,1.3,2.8,2.8,2.8s2.8-1.3,2.8-2.8
				C260.3,29.1,259,27.9,257.5,27.9z"/>
		</g>
		<g>
			<path class="st3" d="M298.6,94.1c-2.1,0-3.8-1.7-3.8-3.8c0-2.1,1.7-3.8,3.8-3.8c2.1,0,3.8,1.7,3.8,3.8
				C302.4,92.4,300.7,94.1,298.6,94.1z M298.6,87.5c-1.5,0-2.8,1.3-2.8,2.8c0,1.5,1.3,2.8,2.8,2.8s2.8-1.3,2.8-2.8
				C301.4,88.8,300.2,87.5,298.6,87.5z"/>
		</g>
		<g>
			<path class="st3" d="M327.7,135.1c-2.1,0-3.8-1.7-3.8-3.8c0-2.1,1.7-3.8,3.8-3.8c2.1,0,3.8,1.7,3.8,3.8
				C331.4,133.4,329.7,135.1,327.7,135.1z M327.7,128.6c-1.5,0-2.8,1.3-2.8,2.8s1.3,2.8,2.8,2.8c1.5,0,2.8-1.3,2.8-2.8
				S329.2,128.6,327.7,128.6z"/>
		</g>
		<g>
			<path class="st3" d="M309.6,163.7c-2.1,0-3.8-1.7-3.8-3.8s1.7-3.8,3.8-3.8s3.8,1.7,3.8,3.8S311.6,163.7,309.6,163.7z
				 M309.6,157.1c-1.5,0-2.8,1.3-2.8,2.8s1.3,2.8,2.8,2.8s2.8-1.3,2.8-2.8S311.1,157.1,309.6,157.1z"/>
		</g>
		<g>
			<path class="st3" d="M263.4,190c-2.1,0-3.8-1.7-3.8-3.8s1.7-3.8,3.8-3.8c2.1,0,3.8,1.7,3.8,3.8S265.5,190,263.4,190z
				 M263.4,183.4c-1.5,0-2.8,1.3-2.8,2.8s1.3,2.8,2.8,2.8s2.8-1.3,2.8-2.8S264.9,183.4,263.4,183.4z"/>
		</g>
		<g>
			<path class="st3" d="M275.6,234c-2.1,0-3.8-1.7-3.8-3.8c0-2.1,1.7-3.8,3.8-3.8c2.1,0,3.8,1.7,3.8,3.8
				C279.3,232.4,277.7,234,275.6,234z M275.6,227.5c-1.5,0-2.8,1.3-2.8,2.8s1.3,2.8,2.8,2.8s2.8-1.3,2.8-2.8
				S277.1,227.5,275.6,227.5z"/>
		</g>
		<g>
			<circle class="st3" cx="264.1" cy="261.6" r="3.3"/>
		</g>
		<g>
			<path class="st3" d="M249.3,298.6c-2.1,0-3.8-1.7-3.8-3.8c0-2.1,1.7-3.8,3.8-3.8c2.1,0,3.8,1.7,3.8,3.8
				C253.1,296.9,251.4,298.6,249.3,298.6z M249.3,292c-1.5,0-2.8,1.3-2.8,2.8s1.3,2.8,2.8,2.8s2.8-1.3,2.8-2.8S250.9,292,249.3,292z
				"/>
		</g>
		<g>
			<path class="st3" d="M220.2,288.2c-2.1,0-3.8-1.7-3.8-3.8c0-2.1,1.7-3.8,3.8-3.8c2.1,0,3.8,1.7,3.8,3.8
				C224,286.6,222.3,288.2,220.2,288.2z M220.2,281.7c-1.5,0-2.8,1.3-2.8,2.8s1.3,2.8,2.8,2.8c1.5,0,2.8-1.3,2.8-2.8
				S221.7,281.7,220.2,281.7z"/>
		</g>
		<g>
			<path class="st3" d="M191.8,278.3c-2.1,0-3.8-1.7-3.8-3.8c0-2.1,1.7-3.8,3.8-3.8c2.1,0,3.8,1.7,3.8,3.8
				C195.5,276.6,193.9,278.3,191.8,278.3z M191.8,271.7c-1.5,0-2.8,1.3-2.8,2.8s1.3,2.8,2.8,2.8c1.5,0,2.8-1.3,2.8-2.8
				S193.3,271.7,191.8,271.7z"/>
		</g>
		<g>
			<path class="st3" d="M178.4,263.3c-2.1,0-3.8-1.7-3.8-3.8c0-2.1,1.7-3.8,3.8-3.8c2.1,0,3.8,1.7,3.8,3.8
				C182.2,261.6,180.5,263.3,178.4,263.3z M178.4,256.7c-1.5,0-2.8,1.3-2.8,2.8c0,1.5,1.3,2.8,2.8,2.8c1.5,0,2.8-1.3,2.8-2.8
				C181.2,258,180,256.7,178.4,256.7z"/>
		</g>
		<g>
			<path class="st3" d="M141.6,305.2c-2.1,0-3.8-1.7-3.8-3.8c0-2.1,1.7-3.8,3.8-3.8c2.1,0,3.8,1.7,3.8,3.8
				C145.3,303.5,143.6,305.2,141.6,305.2z M141.6,298.6c-1.5,0-2.8,1.3-2.8,2.8s1.3,2.8,2.8,2.8c1.5,0,2.8-1.3,2.8-2.8
				S143.1,298.6,141.6,298.6z"/>
		</g>
		<g>
			<path class="st3" d="M123.8,293.8c-2.1,0-3.8-1.7-3.8-3.8c0-2.1,1.7-3.8,3.8-3.8c2.1,0,3.8,1.7,3.8,3.8
				C127.5,292.1,125.9,293.8,123.8,293.8z M123.8,287.2c-1.5,0-2.8,1.3-2.8,2.8s1.3,2.8,2.8,2.8c1.5,0,2.8-1.3,2.8-2.8
				S125.3,287.2,123.8,287.2z"/>
		</g>
		<g>
			<circle class="st3" cx="165.1" cy="302.2" r="3.3"/>
		</g>
		<g>
			<circle class="st3" cx="74.5" cy="267.5" r="3.3"/>
		</g>
		<g>
			<path class="st3" d="M151.5,321.7c-2.1,0-3.8-1.7-3.8-3.8c0-2.1,1.7-3.8,3.8-3.8c2.1,0,3.8,1.7,3.8,3.8
				C155.3,320,153.6,321.7,151.5,321.7z M151.5,315.1c-1.5,0-2.8,1.3-2.8,2.8s1.3,2.8,2.8,2.8c1.5,0,2.8-1.3,2.8-2.8
				S153.1,315.1,151.5,315.1z"/>
		</g>
		<g>
			<path class="st3" d="M186,316.2c-2.1,0-3.8-1.7-3.8-3.8c0-2.1,1.7-3.8,3.8-3.8c2.1,0,3.8,1.7,3.8,3.8
				C189.8,314.5,188.1,316.2,186,316.2z M186,309.6c-1.5,0-2.8,1.3-2.8,2.8s1.3,2.8,2.8,2.8c1.5,0,2.8-1.3,2.8-2.8
				S187.5,309.6,186,309.6z"/>
		</g>
		<g>
			<circle class="st3" cx="205.3" cy="271.2" r="3.3"/>
		</g>
		<g>
			<circle class="st3" cx="306.3" cy="227" r="3.3"/>
		</g>
		<g>
			<path class="st3" d="M286.8,249.2c-2.1,0-3.8-1.7-3.8-3.8c0-2.1,1.7-3.8,3.8-3.8c2.1,0,3.8,1.7,3.8,3.8
				C290.6,247.6,288.9,249.2,286.8,249.2z M286.8,242.7c-1.5,0-2.8,1.3-2.8,2.8s1.3,2.8,2.8,2.8s2.8-1.3,2.8-2.8
				S288.4,242.7,286.8,242.7z"/>
		</g>
		<g>
			<path class="st3" d="M338.2,181c-2.1,0-3.8-1.7-3.8-3.8s1.7-3.8,3.8-3.8c2.1,0,3.8,1.7,3.8,3.8S340.3,181,338.2,181z
				 M338.2,174.5c-1.5,0-2.8,1.3-2.8,2.8s1.3,2.8,2.8,2.8s2.8-1.3,2.8-2.8S339.7,174.5,338.2,174.5z"/>
		</g>
		<g>
			<circle class="st3" cx="279.4" cy="129.9" r="3.3"/>
		</g>
		<g>
			<circle class="st3" cx="345.4" cy="144.6" r="3.3"/>
		</g>
		<g>
			<circle class="st3" cx="289.4" cy="69.1" r="3.3"/>
		</g>
		<g>
			<circle class="st3" cx="207.2" cy="36.7" r="3.3"/>
		</g>
		<g>
			<path class="st3" d="M170.8,20.3c-2.1,0-3.8-1.7-3.8-3.8c0-2.1,1.7-3.8,3.8-3.8c2.1,0,3.8,1.7,3.8,3.8
				C174.6,18.6,172.9,20.3,170.8,20.3z M170.8,13.7c-1.5,0-2.8,1.3-2.8,2.8c0,1.5,1.3,2.8,2.8,2.8c1.5,0,2.8-1.3,2.8-2.8
				C173.6,15,172.3,13.7,170.8,13.7z"/>
		</g>
		<g>
			<path class="st3" d="M84.8,127c-2.1,0-3.8-1.7-3.8-3.8c0-2.1,1.7-3.8,3.8-3.8c2.1,0,3.8,1.7,3.8,3.8
				C88.6,125.3,86.9,127,84.8,127z M84.8,120.4c-1.5,0-2.8,1.3-2.8,2.8c0,1.5,1.3,2.8,2.8,2.8c1.5,0,2.8-1.3,2.8-2.8
				C87.6,121.7,86.4,120.4,84.8,120.4z"/>
		</g>
		<g>
			<circle class="st3" cx="64.6" cy="153" r="3.3"/>
		</g>
		<g>
			<circle class="st3" cx="51.5" cy="221.1" r="3.3"/>
		</g>
		<g>
			<path class="st3" d="M42.8,168.7c-2.1,0-3.8-1.7-3.8-3.8c0-2.1,1.7-3.8,3.8-3.8c2.1,0,3.8,1.7,3.8,3.8
				C46.6,167,44.9,168.7,42.8,168.7z M42.8,162.1c-1.5,0-2.8,1.3-2.8,2.8c0,1.5,1.3,2.8,2.8,2.8c1.5,0,2.8-1.3,2.8-2.8
				C45.6,163.4,44.4,162.1,42.8,162.1z"/>
		</g>
		<g>
			<path class="st3" d="M27.1,208.9c-2.1,0-3.8-1.7-3.8-3.8c0-2.1,1.7-3.8,3.8-3.8c2.1,0,3.8,1.7,3.8,3.8
				C30.9,207.2,29.2,208.9,27.1,208.9z M27.1,202.4c-1.5,0-2.8,1.3-2.8,2.8c0,1.5,1.3,2.8,2.8,2.8c1.5,0,2.8-1.3,2.8-2.8
				C29.9,203.6,28.7,202.4,27.1,202.4z"/>
		</g>
		<g>
			<path class="st3" d="M66,232.7c-2.1,0-3.8-1.7-3.8-3.8c0-2.1,1.7-3.8,3.8-3.8c2.1,0,3.8,1.7,3.8,3.8
				C69.8,231,68.1,232.7,66,232.7z M66,226.2c-1.5,0-2.8,1.3-2.8,2.8s1.3,2.8,2.8,2.8c1.5,0,2.8-1.3,2.8-2.8S67.5,226.2,66,226.2z"
				/>
		</g>
		<g>
			<path class="st3" d="M102.5,196.5c-2.1,0-3.8-1.7-3.8-3.8c0-2.1,1.7-3.8,3.8-3.8c2.1,0,3.8,1.7,3.8,3.8
				C106.3,194.8,104.6,196.5,102.5,196.5z M102.5,189.9c-1.5,0-2.8,1.3-2.8,2.8c0,1.5,1.3,2.8,2.8,2.8c1.5,0,2.8-1.3,2.8-2.8
				C105.3,191.2,104.1,189.9,102.5,189.9z"/>
		</g>
		<g>
			<circle class="st3" cx="98.2" cy="224.4" r="3.3"/>
		</g>
		<g>
			<path class="st3" d="M75.4,115.8c-2.1,0-3.8-1.7-3.8-3.8s1.7-3.8,3.8-3.8c2.1,0,3.8,1.7,3.8,3.8S77.4,115.8,75.4,115.8z
				 M75.4,109.2c-1.5,0-2.8,1.3-2.8,2.8s1.3,2.8,2.8,2.8s2.8-1.3,2.8-2.8S76.9,109.2,75.4,109.2z"/>
		</g>
		<g>
			<circle class="st3" cx="36.2" cy="136.1" r="3.3"/>
		</g>
		<g>
			<circle class="st3" cx="22.8" cy="174.7" r="3.3"/>
		</g>
		<g>
			<circle class="st3" cx="195" cy="19.3" r="3.3"/>
		</g>
		<g>
			<polygon class="st3" points="151.9,112.8 129.1,87.4 129.1,73.5 117.3,73.5 117.3,48.8 127.3,38.8 127.3,24.4 128.3,24.4 
				128.3,39.2 118.3,49.2 118.3,72.5 130,72.5 130,87 152.7,112.2 			"/>
		</g>
		<g>
			<polygon class="st3" points="159.1,112.5 158.1,112.5 158.1,87.2 140.7,69 122.8,69 122.8,49.7 122.9,49.5 141.1,30.7 
				141.8,31.4 123.7,50.1 123.7,68 141.1,68 159.1,86.8 			"/>
		</g>
		<g>
			<polygon class="st3" points="165.6,112.5 164.7,112.5 164.7,86.4 141.6,61.9 141.6,46.6 156.9,46.6 156.9,17.9 157.8,17.9 
				157.8,47.6 142.5,47.6 142.5,61.5 165.6,86 			"/>
		</g>
		<g>
			<polygon class="st3" points="172.2,112.5 171.2,112.5 171.2,83.1 152.7,64.6 152.7,54.2 165.1,54.2 165.1,41.6 166.1,41.6 
				166.1,55.1 153.7,55.1 153.7,64.2 172.2,82.7 			"/>
		</g>
		<g>
			<polygon class="st3" points="178.9,112.5 177.9,112.5 177.9,24 172.8,18.9 173.5,18.2 178.9,23.6 			"/>
		</g>
		<g>
			<polygon class="st3" points="185.3,112.5 184.4,112.5 184.4,29.3 192.7,21 193.4,21.6 185.3,29.7 			"/>
		</g>
		<g>
			<rect x="191.1" y="55.6" class="st3" width="1" height="56.9"/>
		</g>
		<g>
			<polygon class="st3" points="198.8,112.5 197.8,112.5 197.8,58.3 206.7,49.4 206.7,40 207.7,40 207.7,49.8 198.8,58.7 			"/>
		</g>
		<g>
			<polygon class="st3" points="212,112.8 211.3,112.2 225.1,96.6 247.1,96.6 247.1,86.2 271.9,86.2 287.1,71 287.8,71.7 
				272.3,87.2 248.1,87.2 248.1,97.6 225.5,97.6 			"/>
		</g>
		<g>
			<polygon class="st3" points="204.8,112.8 204,112.2 226.3,87.9 226.3,66.4 257,66.4 257,34.8 258,34.8 258,67.4 227.3,67.4 
				227.3,88.3 			"/>
		</g>
		<g>
			<polygon class="st3" points="232.8,133.8 232.1,133.1 242.8,122.4 265.8,122.4 296,92.2 296.7,92.9 266.2,123.4 243.2,123.4 			
				"/>
		</g>
		<g>
			<polygon class="st3" points="232.8,140.7 232.1,140 242.1,130 276.1,130 276.1,131 242.5,131 			"/>
		</g>
		<g>
			<polygon class="st3" points="286.7,146.9 232.4,146.9 232.4,145.9 286.3,145.9 301.4,130.9 324.4,130.9 324.4,131.8 301.8,131.8 
							"/>
		</g>
		<g>
			<polygon class="st3" points="289.9,154.2 232.4,154.2 232.4,153.2 289.5,153.2 298.6,144.2 343,144.2 343,145.1 299,145.1 			"/>
		</g>
		<g>
			<rect x="232.4" y="159.4" class="st3" width="73.9" height="1"/>
		</g>
		<g>
			<polygon class="st3" points="334.9,178.6 293.2,178.6 281.6,167 232.4,167 232.4,166 282,166 293.6,177.6 334.9,177.6 			"/>
		</g>
		<g>
			<polygon class="st3" points="306.8,223.7 305.8,223.7 305.8,200.1 288.5,200.1 288.5,188.6 273.7,173.7 232.4,173.7 232.4,172.7 
				274.1,172.7 289.5,188.2 289.5,199.1 306.8,199.1 			"/>
		</g>
		<g>
			<polygon class="st3" points="287.3,242.2 286.4,242.2 286.4,222.1 280.1,215.8 280.1,193.5 266.9,180.3 232.4,180.3 232.4,179.4 
				267.3,179.4 281.1,193.2 281.1,215.4 287.3,221.7 			"/>
		</g>
		<g>
			<rect x="232.4" y="185.8" class="st3" width="28" height="1"/>
		</g>
		<g>
			<polygon class="st3" points="276.1,227 275.1,227 275.1,200.7 268,193.7 232.4,193.7 232.4,192.7 268.4,192.7 276.1,200.3 			"/>
		</g>
		<g>
			<polygon class="st3" points="264.6,258.3 263.7,258.3 263.7,244.4 252,232.8 252,219.9 232.1,199.9 232.8,199.2 253,219.5 
				253,232.4 264.6,244 			"/>
		</g>
		<g>
			<polygon class="st3" points="246.6,293.2 229.2,275.8 229.2,239 211.1,220.9 211.8,220.2 230.2,238.6 230.2,275.4 247.3,292.5 
							"/>
		</g>
		<g>
			<polygon class="st3" points="220.7,281.2 219.7,281.2 219.7,236.4 204.2,220.9 204.9,220.2 220.7,236 			"/>
		</g>
		<g>
			<polygon class="st3" points="205.8,267.9 204.8,267.9 204.8,239.8 197.6,232.7 197.6,220.5 198.6,220.5 198.6,232.3 205.8,239.4 
							"/>
		</g>
		<g>
			<polygon class="st3" points="186.5,309.2 185.5,309.2 185.5,282.8 197.9,282.8 197.9,244.7 190.9,237.6 190.9,220.5 191.8,220.5 
				191.8,237.2 198.9,244.3 198.9,283.8 186.5,283.8 			"/>
		</g>
		<g>
			<polygon class="st3" points="192.3,271.4 191.3,271.4 191.3,249.5 184.4,242.7 184.4,220.5 185.4,220.5 185.4,242.3 192.3,249.1 
							"/>
		</g>
		<g>
			<rect x="177.9" y="221.1" class="st3" width="1" height="35.6"/>
		</g>
		<g>
			<polygon class="st3" points="165.6,298.9 164.7,298.9 164.7,277.7 171.2,271.2 171.2,221.1 172.2,221.1 172.2,271.6 165.6,278.1 
							"/>
		</g>
		<g>
			<polygon class="st3" points="152,314.6 151,314.6 151,280.7 164.7,267.1 164.7,220.5 165.6,220.5 165.6,267.5 152,281.1 			"/>
		</g>
		<g>
			<polygon class="st3" points="142,298.1 141.1,298.1 141.1,281.4 157.9,264.6 157.9,220.5 158.8,220.5 158.8,265 142,281.8 			"/>
		</g>
		<g>
			<polygon class="st3" points="124.3,286.7 123.3,286.7 123.3,270.1 151.4,242 151.4,221.1 152.3,221.1 152.3,242.4 124.3,270.5 
							"/>
		</g>
		<g>
			<polygon class="st3" points="103.4,268.1 77.4,268.1 77.4,267.1 102.4,267.1 102.4,243.1 120.9,243.1 143.9,220.2 144.6,220.9 
				121.3,244.1 103.4,244.1 			"/>
		</g>
		<g>
			<polygon class="st3" points="124.1,133.8 114,123.7 88.1,123.7 88.1,122.7 114.4,122.7 124.7,133.1 			"/>
		</g>
		<g>
			<polygon class="st3" points="124.1,140.4 117.3,133.6 75.3,133.6 75.3,115.3 76.2,115.3 76.2,132.6 117.7,132.6 124.7,139.7 			
				"/>
		</g>
		<g>
			<polygon class="st3" points="124.4,147.2 75.6,147.2 64.8,136.5 39.5,136.5 39.5,135.6 65.2,135.6 76,146.3 124.4,146.3 			"/>
		</g>
		<g>
			<rect x="67.4" y="152.5" class="st3" width="57" height="1"/>
		</g>
		<g>
			<polygon class="st3" points="66.2,165.4 45.9,165.4 45.9,164.5 65.8,164.5 70.9,159.4 124.4,159.4 124.4,160.3 71.3,160.3 			"/>
		</g>
		<g>
			<polygon class="st3" points="65.4,175.2 26.1,175.2 26.1,174.2 65,174.2 73.2,166 124.4,166 124.4,167 73.6,167 			"/>
		</g>
		<g>
			<polygon class="st3" points="29.2,202.7 28.5,202.1 42.6,188 75.5,188 90.8,172.7 123.8,172.7 123.8,173.7 91.2,173.7 
				75.9,188.9 43,188.9 			"/>
		</g>
		<g>
			<polygon class="st3" points="52,218.4 51,218.4 51,194.3 81.8,194.3 95.7,180.4 124.4,180.4 124.4,181.4 96.1,181.4 82.1,195.3 
				52,195.3 			"/>
		</g>
		<g>
			<polygon class="st3" points="85.4,229.4 69.3,229.4 69.3,228.5 84.5,228.5 84.5,201.2 99.9,185.8 124.4,185.8 124.4,186.7 
				100.3,186.7 85.4,201.6 			"/>
		</g>
		<g>
			<rect x="105.8" y="192.2" class="st3" width="18.6" height="1"/>
		</g>
		<g>
			<polygon class="st3" points="117.2,224.9 101.4,224.9 101.4,223.9 116.2,223.9 116.2,206.5 123.4,199.2 124.1,199.9 117.2,206.8 
							"/>
		</g>
	</g>
</g>
<g id="BACKGROUND_1">
</g>
<g id="DESIGNED_BY_FREEPIK">
</g>
</svg>
