<?xml version="1.0" encoding="utf-8"?>
<!-- Generator: Adobe Illustrator 22.0.0, SVG Export Plug-In . SVG Version: 6.00 Build 0)  -->
<svg version="1.1" id="Layer_1" xmlns="http://www.w3.org/2000/svg" xmlns:xlink="http://www.w3.org/1999/xlink" x="0px" y="0px"
	 viewBox="0 0 1026.6 989.9" style="enable-background:new 0 0 1026.6 989.9;" xml:space="preserve">
<style type="text/css">
	.st0{fill:#FFFFFF;}
	.st1{fill:#555555;}
</style>
<g>
	<circle class="st0" cx="588.5" cy="577.8" r="406.7"/>
	<g>
		<path class="st1" d="M700.6,296.5l-72.9-0.1c-82,0-134.9,54.3-134.9,138.4v63.8h-73.3c-6.3,0-11.5,5.1-11.5,11.5v92.6
			c0,6.3,5.1,11.5,11.5,11.5h73.3v233.4c0,6.3,5.1,11.5,11.5,11.5H600c6.3,0,11.5-5.1,11.5-11.5V614.2h85.8
			c6.3,0,11.5-5.1,11.5-11.5v-92.5c0-3-1.2-6-3.4-8.1c-2.2-2.2-5.1-3.4-8.1-3.4h-85.8v-54.1c0-26,6.2-39.3,40.1-39.3h49.1
			c6.3,0,11.5-5.1,11.5-11.5v-85.9C711.9,301.7,706.9,296.6,700.6,296.5z"/>
	</g>
	<path class="st0" d="M346.1,26.1l7.3,246.9c1.6,50.9-38.6,93.4-89.5,95L17,375.3l16.2-5.9c150.6-55,265.8-178.8,309.9-332.9
		L346.1,26.1z"/>
</g>
</svg>
