<?xml version="1.0" encoding="utf-8"?>
<!-- Generator: Adobe Illustrator 22.0.0, SVG Export Plug-In . SVG Version: 6.00 Build 0)  -->
<svg version="1.1" id="Layer_1" xmlns="http://www.w3.org/2000/svg" xmlns:xlink="http://www.w3.org/1999/xlink" x="0px" y="0px"
	 viewBox="0 0 1280 720" style="enable-background:new 0 0 1280 720;" xml:space="preserve">
<style type="text/css">
	.st0{fill:#252E3C;}
</style>
<path class="st0" d="M1279.9,482.3c-95.6-138.8-136.1-242-184.8-233.9c-98.5,15.6-156.3,223.9-247.6,209
	c-95.3-15.6-111.8-156.8-195.2-140c-70.5,13.9-80.3,152.9-153.9,151.5c-5.8-0.1-12.1-4.7-14.6-6.2c-44.8-27.3-49.4-126.4-122.5-113
	c-69.4,12.4-101.7,76.1-160.1,66.8c-59.7-8.7-81.2-77.2-150.1-71.6C29.4,346.6,11.9,359,0,369.6V720h1280L1279.9,482.3L1279.9,482.3
	z"/>
</svg>
