<svg xmlns="http://www.w3.org/2000/svg" xmlns:xlink="http://www.w3.org/1999/xlink" viewBox="0 0 448 335"><defs><style>.cls-1,.cls-30,.cls-47,.cls-49,.cls-50{fill:none;}.cls-2{isolation:isolate;}.cls-3,.cls-37,.cls-39,.cls-4,.cls-44,.cls-57{opacity:0.3;}.cls-3{fill:url(#Degradado_sin_nombre_15);}.cls-4{fill:url(#Degradado_sin_nombre_15-2);}.cls-5,.cls-6{fill:url(#Degradado_sin_nombre_64);}.cls-11,.cls-40,.cls-6,.cls-66{opacity:0.5;}.cls-11,.cls-12,.cls-14,.cls-21,.cls-23,.cls-37,.cls-39,.cls-40,.cls-43,.cls-44,.cls-53,.cls-57,.cls-6,.cls-60,.cls-61,.cls-63,.cls-65,.cls-66,.cls-7,.cls-9{mix-blend-mode:multiply;}.cls-7{fill:url(#Degradado_sin_nombre_64-3);}.cls-8{fill:url(#Degradado_sin_nombre_64-4);}.cls-9{fill:url(#Degradado_sin_nombre_64-5);}.cls-10,.cls-11{fill:url(#Degradado_sin_nombre_64-6);}.cls-12{fill:url(#Degradado_sin_nombre_64-8);}.cls-13{fill:url(#Degradado_sin_nombre_64-9);}.cls-14{fill:url(#Degradado_sin_nombre_64-10);}.cls-15{fill:#dba6a5;}.cls-16,.cls-40,.cls-53{fill:#259aff;}.cls-17{fill:#00307c;}.cls-18,.cls-37{fill:#137cbc;}.cls-19,.cls-21,.cls-39,.cls-43{fill:#edb6b3;}.cls-20,.cls-32,.cls-57,.cls-65,.cls-66{fill:#003aa5;}.cls-21{opacity:0.7;}.cls-22{clip-path:url(#clip-path);}.cls-24{clip-path:url(#clip-path-2);}.cls-25{fill:#7f3322;}.cls-26{fill:#fff;}.cls-27{mix-blend-mode:color-burn;}.cls-28{fill:#3a2719;}.cls-29{fill:#153158;}.cls-30{stroke:#153158;}.cls-30,.cls-49,.cls-50{stroke-linecap:round;stroke-linejoin:round;}.cls-30,.cls-50{stroke-width:2px;}.cls-31,.cls-48{fill:#ededeb;}.cls-32{stroke:#003aa5;stroke-width:0.25px;}.cls-32,.cls-47{stroke-miterlimit:10;}.cls-33{fill:url(#Degradado_sin_nombre_64-11);}.cls-34{clip-path:url(#clip-path-3);}.cls-35{clip-path:url(#clip-path-4);}.cls-36{fill:#fdda42;}.cls-38{clip-path:url(#clip-path-5);}.cls-41{fill:#e2abaa;}.cls-42{clip-path:url(#clip-path-6);}.cls-43{opacity:0.25;}.cls-45{clip-path:url(#clip-path-7);}.cls-46{clip-path:url(#clip-path-8);}.cls-47,.cls-49,.cls-50{stroke:#ededeb;}.cls-47,.cls-49{stroke-width:1.2px;}.cls-48,.cls-53{opacity:0.4;}.cls-51{clip-path:url(#clip-path-9);}.cls-52{clip-path:url(#clip-path-10);}.cls-54{fill:url(#Degradado_sin_nombre_64-12);}.cls-55{clip-path:url(#clip-path-11);}.cls-56{clip-path:url(#clip-path-12);}.cls-58,.cls-60{fill:url(#Degradado_sin_nombre_64-13);}.cls-59,.cls-61{fill:url(#Degradado_sin_nombre_64-14);}.cls-62,.cls-63{fill:url(#Degradado_sin_nombre_64-17);}.cls-64{fill:#4baafc;}</style><linearGradient id="Degradado_sin_nombre_15" x1="21.21" y1="174.8" x2="426.07" y2="174.8" gradientUnits="userSpaceOnUse"><stop offset="0" stop-color="#c2e1fe"/><stop offset="1" stop-color="#259aff" stop-opacity="0"/></linearGradient><linearGradient id="Degradado_sin_nombre_15-2" x1="-1130.84" y1="168.64" x2="-709.88" y2="168.64" gradientTransform="matrix(-1, 0, 0, 1, -696.72, 0)" xlink:href="#Degradado_sin_nombre_15"/><linearGradient id="Degradado_sin_nombre_64" x1="101.2" y1="-69.29" x2="191.52" y2="53.87" gradientTransform="translate(10.38 139.02) rotate(23.17)" gradientUnits="userSpaceOnUse"><stop offset="0" stop-color="#fdda42"/><stop offset="1" stop-color="#e5a003"/></linearGradient><linearGradient id="Degradado_sin_nombre_64-3" x1="148.76" y1="53.15" x2="148.76" y2="-49.89" xlink:href="#Degradado_sin_nombre_64"/><linearGradient id="Degradado_sin_nombre_64-4" x1="61.35" y1="162.01" x2="174.9" y2="316.87" gradientTransform="matrix(1, 0, 0, 1, 0, 0)" xlink:href="#Degradado_sin_nombre_64"/><linearGradient id="Degradado_sin_nombre_64-5" x1="118.46" y1="315.86" x2="118.46" y2="186.3" gradientTransform="matrix(1, 0, 0, 1, 0, 0)" xlink:href="#Degradado_sin_nombre_64"/><linearGradient id="Degradado_sin_nombre_64-6" x1="-763.39" y1="300.66" x2="-673.07" y2="423.82" gradientTransform="matrix(-0.92, 0.39, 0.39, 0.92, -492.99, 139.02)" xlink:href="#Degradado_sin_nombre_64"/><linearGradient id="Degradado_sin_nombre_64-8" x1="-715.84" y1="423.1" x2="-715.84" y2="320.06" gradientTransform="matrix(-0.92, 0.39, 0.39, 0.92, -492.99, 139.02)" xlink:href="#Degradado_sin_nombre_64"/><linearGradient id="Degradado_sin_nombre_64-9" x1="-879.1" y1="165.01" x2="-765.54" y2="319.87" gradientTransform="matrix(-1, 0, 0, 1, -482.62, 0)" xlink:href="#Degradado_sin_nombre_64"/><linearGradient id="Degradado_sin_nombre_64-10" x1="-821.99" y1="318.86" x2="-821.99" y2="189.3" gradientTransform="matrix(-1, 0, 0, 1, -482.62, 0)" xlink:href="#Degradado_sin_nombre_64"/><clipPath id="clip-path"><path id="_Rectangle_" data-name="&lt;Rectangle&gt;" class="cls-1" d="M194.87,141.16h9.63a1.72,1.72,0,0,1,1.72,1.72V164a4.14,4.14,0,0,1-4.14,4.14h-4.79a4.14,4.14,0,0,1-4.14-4.14V142.88A1.72,1.72,0,0,1,194.87,141.16Z"/></clipPath><clipPath id="clip-path-2"><path id="_Clipping_Path_" data-name="&lt;Clipping Path&gt;" class="cls-1" d="M208.65,135.61c-.36-1.11-1.66-.82-4,.42a12.65,12.65,0,0,1-10,.27c-2.37-1.07-3.55-1.18-4-.22s2.21,6.62,7.21,7.31a12.88,12.88,0,0,0,3.87-.1C206.73,142.39,209.05,136.85,208.65,135.61Z"/></clipPath><linearGradient id="Degradado_sin_nombre_64-11" x1="264.9" y1="140.42" x2="250.08" y2="140.42" gradientTransform="matrix(1, 0, 0, 1, 0, 0)" xlink:href="#Degradado_sin_nombre_64"/><clipPath id="clip-path-3"><path id="_Rectangle_2" data-name="&lt;Rectangle&gt;" class="cls-1" d="M252.69,128.11h9.63a1.72,1.72,0,0,1,1.72,1.72v21.11a4.14,4.14,0,0,1-4.14,4.14h-4.79a4.14,4.14,0,0,1-4.14-4.14V129.83A1.72,1.72,0,0,1,252.69,128.11Z"/></clipPath><clipPath id="clip-path-4"><path id="_Clipping_Path_2" data-name="&lt;Clipping Path&gt;" class="cls-1" d="M268.16,122.56c-.42-1.11-2-.82-4.71.42a17.53,17.53,0,0,1-11.91.26c-2.82-1.06-4.22-1.17-4.72-.21s2.63,6.62,8.56,7.31a18.09,18.09,0,0,0,4.59-.1C265.88,129.34,268.63,123.8,268.16,122.56Z"/></clipPath><clipPath id="clip-path-5"><path id="_Clipping_Path_3" data-name="&lt;Clipping Path&gt;" class="cls-1" d="M82,248.05s-2.39,15.05-1.45,16.61,16.52,5.7,27.08,3.2,23.19-8.22,23.19-8.22l-26.14-6.91-11.25,1S85.44,251.53,82,248.05Z"/></clipPath><clipPath id="clip-path-6"><path id="_Clipping_Path_4" data-name="&lt;Clipping Path&gt;" class="cls-1" d="M161.94,251a94.5,94.5,0,0,1,1.31,10.43c0,3-5.45,6.27-8.05,6.45s-55.7-12.21-58.55-12.45a38.42,38.42,0,0,1-5.33-.83s2.6-5,7.4-6.53,10.26.92,13.51,1.69,20.64,3.15,29.73,3A184.5,184.5,0,0,0,161.94,251Z"/></clipPath><clipPath id="clip-path-7"><path id="_Rectangle_3" data-name="&lt;Rectangle&gt;" class="cls-1" d="M117.48,201.38h8.95a1.72,1.72,0,0,1,1.72,1.72v19.69a4.14,4.14,0,0,1-4.14,4.14H119.9a4.14,4.14,0,0,1-4.14-4.14V203.1A1.72,1.72,0,0,1,117.48,201.38Z"/></clipPath><clipPath id="clip-path-8"><path id="_Clipping_Path_5" data-name="&lt;Clipping Path&gt;" class="cls-1" d="M131.93,196.12c-.38-1.06-1.75-.78-4.16.4a14.53,14.53,0,0,1-10.52.24c-2.49-1-3.73-1.11-4.17-.2s2.32,6.28,7.56,6.92a14.49,14.49,0,0,0,4.06-.09C129.91,202.53,132.34,197.29,131.93,196.12Z"/></clipPath><clipPath id="clip-path-9"><path id="_Rectangle_4" data-name="&lt;Rectangle&gt;" class="cls-1" d="M209.16,218.18h8.58a1.72,1.72,0,0,1,1.72,1.72v18.93a4.14,4.14,0,0,1-4.14,4.14h-3.74a4.14,4.14,0,0,1-4.14-4.14V219.9A1.72,1.72,0,0,1,209.16,218.18Z"/></clipPath><clipPath id="clip-path-10"><path id="_Clipping_Path_6" data-name="&lt;Clipping Path&gt;" class="cls-1" d="M222.24,213.08c-.33-1-1.53-.75-3.65.39a11.64,11.64,0,0,1-9.22.24c-2.18-1-3.27-1.08-3.66-.2s2,6.09,6.63,6.72a11.77,11.77,0,0,0,3.56-.09C220.47,219.31,222.6,214.21,222.24,213.08Z"/></clipPath><linearGradient id="Degradado_sin_nombre_64-12" x1="211.96" y1="311.86" x2="211.96" y2="260.72" gradientTransform="matrix(1, 0, 0, 1, 0, 0)" xlink:href="#Degradado_sin_nombre_64"/><clipPath id="clip-path-11"><path id="_Clipping_Path_7" data-name="&lt;Clipping Path&gt;" class="cls-1" d="M326.51,220.89l-5.23-.47c-1.8-.16-3.13-.15-3-1.95l1-10.79a1.36,1.36,0,0,1,1.47-1.24l9.05.81a1.36,1.36,0,0,1,1.23,1.48l-1,9.19A3.29,3.29,0,0,1,326.51,220.89Z"/></clipPath><clipPath id="clip-path-12"><path id="_Clipping_Path_8" data-name="&lt;Clipping Path&gt;" class="cls-1" d="M311.67,202.87c.37-.93,1.32-.56,2.94.7a8.46,8.46,0,0,0,7.51,1.08c1.88-.71,2.77-.71,3,.15s-2.26,5.5-6.08,5.66a8.35,8.35,0,0,1-2.89-.42C312.5,208.85,311.26,203.9,311.67,202.87Z"/></clipPath><linearGradient id="Degradado_sin_nombre_64-13" x1="267.24" y1="277.66" x2="279.4" y2="277.66" gradientTransform="matrix(1, 0, 0, 1, 0, 0)" xlink:href="#Degradado_sin_nombre_64"/><linearGradient id="Degradado_sin_nombre_64-14" x1="-708.31" y1="288.12" x2="-696.14" y2="288.12" gradientTransform="matrix(-1, 0, 0, 1, -417.35, 0)" xlink:href="#Degradado_sin_nombre_64"/><linearGradient id="Degradado_sin_nombre_64-17" x1="280.07" y1="310.21" x2="280.07" y2="257.25" gradientTransform="matrix(1, 0, 0, 1, 0, 0)" xlink:href="#Degradado_sin_nombre_64"/></defs><title>goup</title><g class="cls-2"><g id="OBJECTS"><path id="_Path_" data-name="&lt;Path&gt;" class="cls-3" d="M37.79,299A41.4,41.4,0,0,1,22.3,271.85c-4.79-36.05,3.56-116.3,79.43-183.47C193.81,6.86,290,12.48,336.55,33c51.32,22.55,83.89,98.12,89.16,165.41,4,50.64-24.94,94.19-73.85,107.93C269.82,329.32,99.58,347.47,37.79,299Z"/><path id="_Path_2" data-name="&lt;Path&gt;" class="cls-4" d="M416.89,297.83A43.12,43.12,0,0,0,433,269.55c5-37.48-3.7-120.93-82.59-190.77C254.66-6,154.66-.13,106.23,21.14c-53.35,23.45-87.22,102-92.7,172-4.12,52.65,25.94,97.94,76.79,112.22C175.62,329.31,352.64,348.18,416.89,297.83Z"/><g id="_Group_" data-name="&lt;Group&gt;"><g id="_Group_2" data-name="&lt;Group&gt;"><g id="_Group_3" data-name="&lt;Group&gt;"><path id="_Path_3" data-name="&lt;Path&gt;" class="cls-5" d="M188.48,231.36c1.42-8.55-1.11-17.74-7.63-23.68-3.88-3.53-10.95-5.35-12.16-11.07-1-4.93,1.82-9.81,2.51-14.62a27.52,27.52,0,0,0-8.13-23.39c-4.22-4-10.28-6-13.65-10.92-3.11-4.54-3.57-10.27-4.63-15.52-1.53-7.56-6.76-18.41-16.3-16.17-8.07,1.9-10.78,11.8-10.91,19a35.66,35.66,0,0,0,.67,7.64c.57,2.9,1.82,5.67,2.23,8.59a24.56,24.56,0,0,1-.26,9.74c-.78,2.73-2.11,5.28-2.88,8-2.82,10.09-.12,20.87,4.83,29.87,3.3,6,5.69,10.89,4.93,17.91-.58,5.45-2.1,10.83-1.69,16.36.81,10.89,8.8,19.26,18.41,23.51a1,1,0,0,0,.79,0C163.16,262.32,184.47,250.69,188.48,231.36Z"/><path id="_Path_4" data-name="&lt;Path&gt;" class="cls-6" d="M188.48,231.36c1.42-8.55-1.11-17.74-7.63-23.68-3.88-3.53-10.95-5.35-12.16-11.07-1-4.93,1.82-9.81,2.51-14.62a27.52,27.52,0,0,0-8.13-23.39c-4.22-4-10.28-6-13.65-10.92-3.11-4.54-3.57-10.27-4.63-15.52-1.53-7.56-6.76-18.41-16.3-16.17-8.07,1.9-10.78,11.8-10.91,19a35.66,35.66,0,0,0,.67,7.64c.57,2.9,1.82,5.67,2.23,8.59a24.56,24.56,0,0,1-.26,9.74c-.78,2.73-2.11,5.28-2.88,8-2.82,10.09-.12,20.87,4.83,29.87,3.3,6,5.69,10.89,4.93,17.91-.58,5.45-2.1,10.83-1.69,16.36.81,10.89,8.8,19.26,18.41,23.51a1,1,0,0,0,.79,0C163.16,262.32,184.47,250.69,188.48,231.36Z"/><path id="_Path_5" data-name="&lt;Path&gt;" class="cls-7" d="M165.72,268.86q-4.28-16.17-8.49-32.36l0,0a107.91,107.91,0,0,0,10.5-28.23c.28-1.29-1.75-1.56-2-.28a105.25,105.25,0,0,1-9.26,25.6q-3.57-13.71-7.12-27.44a1.08,1.08,0,0,0,.18-.24,126.65,126.65,0,0,0,11.2-29c.32-1.28-1.72-1.55-2-.28a124.06,124.06,0,0,1-10.09,26.68q-3.33-12.87-6.63-25.73a136.74,136.74,0,0,0,7.66-20.58c.35-1.25-1.53-2.08-1.89-.81a138,138,0,0,1-6.58,18.23q-3.28-12.81-6.55-25.63a1.11,1.11,0,0,0,.25-.34q3.21-6.44,5.83-13.14c.48-1.23-1.41-2-1.89-.81q-2.25,5.78-4.95,11.33c-1.45-5.73-2.92-11.45-4.37-17.18-.32-1.26-2.36-1-2,.26q3,11.86,6,23.72-4.5-4.74-9.32-9.17c-1-.9-2.25.71-1.28,1.6q6.08,5.58,11.64,11.65,2.67,10.44,5.35,20.88a1.74,1.74,0,0,0,.05.22q1.5,5.84,3,11.67a118.86,118.86,0,0,1-20.41-17.6c-.89-1-2.5.31-1.6,1.29a121.57,121.57,0,0,0,22.78,19.31q3.82,14.86,7.7,29.73l-18-11.69c-1.1-.71-2.39.89-1.28,1.61l20,13q5.79,22.29,11.66,44.56C164.15,270.9,166.05,270.13,165.72,268.86Z"/></g><g id="_Group_4" data-name="&lt;Group&gt;"><path id="_Path_6" data-name="&lt;Path&gt;" class="cls-8" d="M60.56,199.91c2.1,3.08,4.91,5.66,6.83,8.83,2,3.37,4,7.46,4.51,11.38.45,3.55.18,7.16.65,10.71C74.28,243.89,82.74,255,92.91,263c6.77,5.28,12,9.77,14.55,18.26,2,6.59,2.93,13.57,6.14,19.75a32.34,32.34,0,0,0,16.8,14.88h28.18c18.54-7.47,31.2-27.65,27.06-48.08-2.59-10.59-10.06-20-20.53-23.6-6.24-2.17-15.3-.77-19.53-6.79-3.65-5.18-2.75-12.23-4.33-18.13a34.63,34.63,0,0,0-21-23c-6.87-2.58-14.84-1.85-21.17-5.87-5.85-3.71-9.21-10.1-13-15.64-5.51-8-16.92-17.95-26.84-10.63-8.39,6.18-6.62,19-3.23,27.31A44.81,44.81,0,0,0,60.56,199.91Z"/><path id="_Path_7" data-name="&lt;Path&gt;" class="cls-9" d="M83.07,203.89c-5-2.16-10.13-4.17-15.31-6-1.57-.55-2.24,1.94-.68,2.49q9.77,3.44,19.21,7.7,8.24,10.75,16.5,21.49a1.3,1.3,0,0,0,.18.23l9.24,12a149,149,0,0,1-32.29-10.24c-1.51-.68-2.73,1.59-1.22,2.27a152.79,152.79,0,0,0,35.88,11.06q11.79,15.28,23.62,30.56l-26.55-4.63c-1.62-.28-2.32,2.2-.68,2.49l29.56,5.15q14.49,18.72,29,37.39h3.24q-10.4-13.33-20.75-26.69v0a135.49,135.49,0,0,0-1.83-37.82c-.31-1.63-2.79-.94-2.49.68a132.7,132.7,0,0,1,2,34.16Q138.79,272.08,127.9,258a1.18,1.18,0,0,0,.09-.38,159,159,0,0,0-1.42-39.11c-.26-1.64-2.75-.95-2.49.68A155.74,155.74,0,0,1,125.6,255q-10.2-13.22-20.38-26.45A170.66,170.66,0,0,0,103.89,201c-.21-1.62-2.79-1.64-2.58,0a172.09,172.09,0,0,1,1.41,24.32Q92.58,212.1,82.47,198.89a1.32,1.32,0,0,0,.13-.51q.53-9,.23-18.07c0-1.66-2.63-1.67-2.58,0,.17,5.18.12,10.36-.11,15.54Q73.36,187,66.59,178.16c-1-1.31-3.24,0-2.23,1.3Q73.71,191.69,83.07,203.89Z"/></g><g id="_Group_5" data-name="&lt;Group&gt;"><path id="_Path_8" data-name="&lt;Path&gt;" class="cls-10" d="M269.35,231.36c-1.42-8.55,1.11-17.74,7.63-23.68,3.88-3.53,10.95-5.35,12.16-11.07,1-4.93-1.82-9.81-2.51-14.62a27.52,27.52,0,0,1,8.13-23.39c4.22-4,10.28-6,13.65-10.92,3.11-4.54,3.57-10.27,4.63-15.52,1.53-7.56,6.76-18.41,16.3-16.17,8.07,1.9,10.78,11.8,10.91,19a35.66,35.66,0,0,1-.67,7.64c-.57,2.9-1.82,5.67-2.23,8.59a24.56,24.56,0,0,0,.26,9.74c.78,2.73,2.11,5.28,2.88,8,2.82,10.09.12,20.87-4.83,29.87-3.3,6-5.69,10.89-4.93,17.91.58,5.45,2.1,10.83,1.69,16.36-.81,10.89-8.8,19.26-18.41,23.51a1,1,0,0,1-.79,0C294.67,262.32,273.36,250.69,269.35,231.36Z"/><path id="_Path_9" data-name="&lt;Path&gt;" class="cls-11" d="M269.35,231.36c-1.42-8.55,1.11-17.74,7.63-23.68,3.88-3.53,10.95-5.35,12.16-11.07,1-4.93-1.82-9.81-2.51-14.62a27.52,27.52,0,0,1,8.13-23.39c4.22-4,10.28-6,13.65-10.92,3.11-4.54,3.57-10.27,4.63-15.52,1.53-7.56,6.76-18.41,16.3-16.17,8.07,1.9,10.78,11.8,10.91,19a35.66,35.66,0,0,1-.67,7.64c-.57,2.9-1.82,5.67-2.23,8.59a24.56,24.56,0,0,0,.26,9.74c.78,2.73,2.11,5.28,2.88,8,2.82,10.09.12,20.87-4.83,29.87-3.3,6-5.69,10.89-4.93,17.91.58,5.45,2.1,10.83,1.69,16.36-.81,10.89-8.8,19.26-18.41,23.51a1,1,0,0,1-.79,0C294.67,262.32,273.36,250.69,269.35,231.36Z"/><path id="_Path_10" data-name="&lt;Path&gt;" class="cls-12" d="M292.11,268.86q4.27-16.17,8.49-32.36l0,0a107.91,107.91,0,0,1-10.5-28.23c-.28-1.29,1.75-1.56,2-.28a105.64,105.64,0,0,0,9.25,25.6q3.58-13.71,7.13-27.44a1.08,1.08,0,0,1-.18-.24,126.65,126.65,0,0,1-11.2-29c-.32-1.28,1.72-1.55,2-.28a124.62,124.62,0,0,0,10.1,26.68q3.33-12.87,6.63-25.73a136.74,136.74,0,0,1-7.66-20.58c-.35-1.25,1.53-2.08,1.89-.81a136.63,136.63,0,0,0,6.58,18.23q3.29-12.81,6.55-25.63a1.11,1.11,0,0,1-.25-.34q-3.21-6.44-5.83-13.14c-.48-1.23,1.41-2,1.89-.81q2.25,5.78,4.94,11.33,2.19-8.59,4.38-17.18c.32-1.26,2.36-1,2,.26q-3,11.86-6,23.72,4.5-4.74,9.32-9.17c1-.9,2.24.71,1.28,1.6q-6.08,5.58-11.64,11.65-2.67,10.44-5.35,20.88a.9.9,0,0,1-.06.22c-1,3.89-2,7.78-3,11.67a118.86,118.86,0,0,0,20.41-17.6c.89-1,2.5.31,1.6,1.29a121.57,121.57,0,0,1-22.78,19.31q-3.82,14.86-7.7,29.73l18-11.69c1.1-.71,2.39.89,1.28,1.61l-20,13q-5.79,22.29-11.66,44.56C293.68,270.9,291.78,270.13,292.11,268.86Z"/></g><g id="_Group_6" data-name="&lt;Group&gt;"><path id="_Path_11" data-name="&lt;Path&gt;" class="cls-13" d="M397.27,202.91c-2.1,3.08-4.91,5.66-6.83,8.83-2,3.37-4,7.46-4.51,11.38-.45,3.55-.18,7.16-.65,10.71C383.55,246.89,375.09,258,364.92,266c-6.77,5.28-12,9.77-14.56,18.26-2,6.59-2.92,13.57-6.13,19.75a32.37,32.37,0,0,1-16.8,14.88H299.25c-18.54-7.47-31.2-27.65-27.06-48.08,2.59-10.59,10.06-20,20.53-23.6,6.24-2.17,15.3-.77,19.53-6.79,3.65-5.18,2.75-12.23,4.33-18.13a34.63,34.63,0,0,1,21-23c6.87-2.58,14.84-1.85,21.17-5.87,5.84-3.71,9.2-10.1,13-15.64,5.5-8,16.92-17.95,26.83-10.63,8.4,6.18,6.63,19,3.24,27.31A45.38,45.38,0,0,1,397.27,202.91Z"/><path id="_Path_12" data-name="&lt;Path&gt;" class="cls-14" d="M374.76,206.89c5-2.16,10.13-4.17,15.31-6,1.57-.55,2.24,1.94.68,2.49q-9.76,3.44-19.21,7.7-8.24,10.75-16.51,21.49a.91.91,0,0,1-.17.23l-9.24,12a149.22,149.22,0,0,0,32.29-10.24c1.51-.68,2.73,1.59,1.21,2.27a152.57,152.57,0,0,1-35.87,11.06q-11.79,15.28-23.62,30.56l26.55-4.63c1.62-.28,2.32,2.2.68,2.49l-29.56,5.15q-14.49,18.72-29,37.39H285q10.39-13.33,20.75-26.69v0a135.49,135.49,0,0,1,1.83-37.82c.31-1.63,2.79-.94,2.49.68a132.7,132.7,0,0,0-2,34.16Q319,275.08,329.92,261a2.11,2.11,0,0,1-.09-.38,159.54,159.54,0,0,1,1.43-39.11c.26-1.64,2.75-.95,2.49.68A155.74,155.74,0,0,0,332.23,258q10.2-13.22,20.38-26.45A170.66,170.66,0,0,1,353.94,204c.21-1.62,2.79-1.64,2.58,0a170.61,170.61,0,0,0-1.41,24.32q10.14-13.18,20.25-26.39a1.32,1.32,0,0,1-.13-.51q-.53-9-.23-18.07c.05-1.66,2.63-1.67,2.58,0-.17,5.18-.12,10.36.11,15.54q6.78-8.85,13.55-17.69c1-1.31,3.24,0,2.23,1.3Q384.13,194.69,374.76,206.89Z"/></g><g id="_Group_7" data-name="&lt;Group&gt;"><polygon id="_Path_13" data-name="&lt;Path&gt;" class="cls-15" points="180.03 154.66 184.07 155.85 189.06 158.37 183.81 156.22 180.03 154.66"/><path id="_Path_14" data-name="&lt;Path&gt;" class="cls-16" d="M211.05,158.58l4.83-4.75s23.72-6.77,38.63-10.11,16.79-.53,16.79-.53L278,155.08s-34.2,10.1-37,9.85-18.09,6.57-18.09,6.57Z"/><polygon id="_Path_15" data-name="&lt;Path&gt;" class="cls-17" points="254.74 317.86 257.01 242.14 259 242.14 261.51 317.86 280.73 317.86 286.01 215.22 229.51 207.48 229.51 233.37 234.93 317.86 254.74 317.86"/><polygon id="_Path_16" data-name="&lt;Path&gt;" class="cls-17" points="177.47 317.86 197.19 317.86 199.49 241.05 201.48 241.05 204.03 317.86 223.05 317.86 226.97 232.77 223.84 211.29 178.16 199.87 171.98 232.28 172.59 241.73 177.47 317.86"/><polygon id="_Path_17" data-name="&lt;Path&gt;" class="cls-18" points="287.93 229.18 227.05 229.18 230.31 142.74 257.49 138.55 286.84 142.74 281.2 162.89 287.93 229.18"/><g id="_Group_8" data-name="&lt;Group&gt;"><path id="_Path_18" data-name="&lt;Path&gt;" class="cls-19" d="M219.3,118.39s8.85-4.72,10.1,2-2.79,13.37-10,9.71S219.3,118.39,219.3,118.39Z"/><path id="_Path_19" data-name="&lt;Path&gt;" class="cls-20" d="M224.27,128.85a.73.73,0,1,0,.73-.73A.73.73,0,0,0,224.27,128.85Z"/><path id="_Path_20" data-name="&lt;Path&gt;" class="cls-21" d="M221.93,123.87c.6-2.19,1.31-3.45,2.17-3.84a3.58,3.58,0,0,1,4.53,1.6.42.42,0,1,1-.71.43,3.31,3.31,0,0,0-2.14-1.49c1.29,1.32,2.66,3.76.87,6a.41.41,0,0,1-.32.15.44.44,0,0,1-.27-.09A.41.41,0,0,1,226,126c2-2.52-1.13-5.2-1.27-5.31l0,0-.26.1c-.27.13-1,.7-1.7,3.3a.42.42,0,0,1-.4.3h-.11A.41.41,0,0,1,221.93,123.87Z"/></g><path id="_Path_21" data-name="&lt;Path&gt;" class="cls-18" d="M251,139.45l-29.12,4-42.43,11.88,8.27,13.21,31.74-5.78s30.34,3.23,32.79,2.81l-2.65-2.35Z"/><g id="_Group_9" data-name="&lt;Group&gt;"><path id="_Path_22" data-name="&lt;Path&gt;" class="cls-19" d="M180,118.39s-8.85-4.72-10.1,2,2.79,13.37,10,9.71S180,118.39,180,118.39Z"/><path id="_Path_23" data-name="&lt;Path&gt;" class="cls-20" d="M175.06,128.85a.73.73,0,1,1-.73-.73A.73.73,0,0,1,175.06,128.85Z"/><path id="_Path_24" data-name="&lt;Path&gt;" class="cls-21" d="M177.4,123.87c-.6-2.19-1.31-3.45-2.17-3.84a3.58,3.58,0,0,0-4.53,1.6.42.42,0,0,0,.71.43,3.31,3.31,0,0,1,2.14-1.49c-1.29,1.32-2.66,3.76-.87,6a.41.41,0,0,0,.32.15.44.44,0,0,0,.27-.09.41.41,0,0,0,.06-.58c-2-2.52,1.13-5.2,1.27-5.31l0,0,.26.1c.27.13,1,.7,1.7,3.3a.42.42,0,0,0,.4.3h.11A.41.41,0,0,0,177.4,123.87Z"/></g><g id="_Group_10" data-name="&lt;Group&gt;"><path id="_Path_25" data-name="&lt;Path&gt;" class="cls-19" d="M199.69,141.16a6.28,6.28,0,0,0-6.54,6v26.49l-.05,0v-.1a6.52,6.52,0,0,0,6.53,6.52h0a6.52,6.52,0,0,0,6.52-6.52V153.68h.07v-6.52A6.28,6.28,0,0,0,199.69,141.16Z"/><g id="_Clip_Group_" data-name="&lt;Clip Group&gt;"><g class="cls-22"><g id="_Group_11" data-name="&lt;Group&gt;" class="cls-23"><path id="_Path_26" data-name="&lt;Path&gt;" class="cls-19" d="M229.67,93.42H171.14s-2.56,34,1.4,43c2.15,4.89,9.32,9.86,16.12,14a22.91,22.91,0,0,0,23.85-.08c6.65-4.15,13.63-9.09,15.77-14C232.24,127.39,229.67,93.42,229.67,93.42Z"/></g></g></g></g><path id="_Path_27" data-name="&lt;Path&gt;" class="cls-19" d="M223.59,110a11.73,11.73,0,0,0-11.74-11.39H187.7a12,12,0,0,0-12,11.6c-.26,9.2.92,21.25,2.77,25.84,1.72,4.26,6.34,8.6,11.78,12.23a17,17,0,0,0,19.05-.07c5.32-3.62,9.79-7.93,11.5-12.16C222.7,131.46,223.86,119.26,223.59,110Z"/><g id="_Clip_Group_2" data-name="&lt;Clip Group&gt;"><g class="cls-24"><g id="_Group_12" data-name="&lt;Group&gt;"><path id="_Path_28" data-name="&lt;Path&gt;" class="cls-25" d="M208.65,135.61c-.36-1.11-1.66-.82-4,.42a12.65,12.65,0,0,1-10,.27c-2.37-1.07-3.55-1.18-4-.22s2.21,6.62,7.21,7.31a12.88,12.88,0,0,0,3.87-.1C206.73,142.39,209.05,136.85,208.65,135.61Z"/></g><g id="_Group_13" data-name="&lt;Group&gt;"><g id="_Group_14" data-name="&lt;Group&gt;"><path id="_Path_29" data-name="&lt;Path&gt;" class="cls-26" d="M192.83,134.85s.09,3.94,6.28,4.06,8-1.8,8-4.52Z"/></g></g><g id="_Group_15" data-name="&lt;Group&gt;"><g id="_Group_16" data-name="&lt;Group&gt;"><path id="_Path_30" data-name="&lt;Path&gt;" class="cls-19" d="M195.12,142.68s4.26-3,10.85-.19l-5.09,3.88Z"/></g></g><g id="_Group_17" data-name="&lt;Group&gt;" class="cls-27"><g id="_Group_18" data-name="&lt;Group&gt;"><path id="_Path_31" data-name="&lt;Path&gt;" class="cls-19" d="M195.12,142.68s4.26-3,10.85-.19l-5.09,3.88Z"/></g></g></g></g><g id="_Group_19" data-name="&lt;Group&gt;" class="cls-23"><path id="_Path_32" data-name="&lt;Path&gt;" class="cls-19" d="M195.18,126l-.17.72c0,.23-.11.51-.15.84a3.42,3.42,0,0,0,0,1c0,.22.5.5.85.74a12.09,12.09,0,0,0,1.24.68,6.08,6.08,0,0,0,2.83.7,5.1,5.1,0,0,0,.74-.1c.25-.06.49-.13.73-.21a9,9,0,0,0,1.39-.57,10.84,10.84,0,0,0,1.22-.7,2.83,2.83,0,0,0,.48-.4.47.47,0,0,0,.14-.18,1.09,1.09,0,0,0,0-.25,11.44,11.44,0,0,0,0-1.92c0-.47-.07-.74-.07-.74s.09.25.21.71c.05.24.12.52.19.84a6.88,6.88,0,0,1,.15,1.14,2.2,2.2,0,0,1,0,.36,1,1,0,0,1-.2.36,3.59,3.59,0,0,1-.51.52,8.8,8.8,0,0,1-1.23.89,9.37,9.37,0,0,1-1.46.7,7.71,7.71,0,0,1-.82.24,5.37,5.37,0,0,1-.85.14,6.13,6.13,0,0,1-3.24-.88,8.11,8.11,0,0,1-1.25-.86,4.69,4.69,0,0,1-.52-.47,2.91,2.91,0,0,1-.24-.27.79.79,0,0,1-.17-.37,2.92,2.92,0,0,1,.17-1.18c.1-.32.2-.59.29-.81C195.05,126.2,195.18,126,195.18,126Z"/></g><g id="_Group_20" data-name="&lt;Group&gt;"><g id="_Group_21" data-name="&lt;Group&gt;"><path id="_Path_33" data-name="&lt;Path&gt;" class="cls-28" d="M181.13,132.93a.06.06,0,0,0,0-.11.06.06,0,0,0,0,.11Z"/></g></g><g id="_Group_22" data-name="&lt;Group&gt;"><path id="_Path_34" data-name="&lt;Path&gt;" class="cls-29" d="M190.7,119.34a2.43,2.43,0,1,1-2.42-2.43A2.42,2.42,0,0,1,190.7,119.34Z"/><path id="_Path_35" data-name="&lt;Path&gt;" class="cls-29" d="M213.48,119.34a2.43,2.43,0,1,1-2.43-2.43A2.42,2.42,0,0,1,213.48,119.34Z"/></g><g id="_Group_23" data-name="&lt;Group&gt;"><path id="_Path_36" data-name="&lt;Path&gt;" class="cls-30" d="M182,114.29a12.52,12.52,0,0,1,7.28-4.56"/><path id="_Path_37" data-name="&lt;Path&gt;" class="cls-30" d="M217.38,114.29a12.52,12.52,0,0,0-7.28-4.56"/></g><g id="_Group_24" data-name="&lt;Group&gt;"><path id="_Path_38" data-name="&lt;Path&gt;" class="cls-20" d="M221.85,101.42c-3.33,2.82-7.57,4.33-11.74,5.63-7.83,2.44-16.07,4.38-24.17,3.11a25,25,0,0,1-12.32-5.35,17.69,17.69,0,0,1-6.33-11.66c.12,1.63,2.29,2.1,3.93,2,13.23-.44,26.42-5.48,39.45-3.07,4.66.86,8.49,3.14,10.44,7.45"/><g id="_Group_25" data-name="&lt;Group&gt;"><path id="_Path_39" data-name="&lt;Path&gt;" class="cls-20" d="M220.9,100.46c-7.35,6.52-20.66,9.1-30.27,8.78-10.17-.34-20.44-5.53-22-16.47l-2.73.75c.8,2.25,2.47,2.9,4.78,3.06,5,.35,10.43-1,15.28-1.85,10.23-1.74,28-6,34.25,5.36.64,1.16,2.33.14,1.76-1-3.79-7.83-12.25-9-20.23-8.85a110,110,0,0,0-14.68,1.7c-2.64.42-17.3,4-18.43.86a1.42,1.42,0,0,0-2.73.75c3.67,26.18,41.42,19.29,56.61,9.06a1.34,1.34,0,1,0-1.63-2.12Z"/></g></g><path id="_Path_40" data-name="&lt;Path&gt;" class="cls-20" d="M179.52,106.49a.72.72,0,0,0-1.05-.42,5,5,0,0,0-2.07,3.08,39.24,39.24,0,0,1,.48-4.59c.48-1.65-2.24-2.35-2.55-.7a27.37,27.37,0,0,0,.75,13.51.9.9,0,0,0,1.76-.22C178.09,110.56,180.05,108,179.52,106.49Z"/><g id="_Group_26" data-name="&lt;Group&gt;"><path id="_Path_41" data-name="&lt;Path&gt;" class="cls-20" d="M216.81,102.86c.66,5.18,6.33,8.82,6.5,14a32.56,32.56,0,0,0,2.07-8.48,10.92,10.92,0,0,0-2.53-8.13"/><g id="_Group_27" data-name="&lt;Group&gt;"><path id="_Path_42" data-name="&lt;Path&gt;" class="cls-20" d="M215.61,102.86c.11,2.48,1.58,4.45,3,6.43,1.82,2.58,3.27,4.68,4.11,7.79a.63.63,0,0,0,1.24-.17c0-1.92,1.62-3.88,2.13-5.73a15.39,15.39,0,0,0,.46-5.19c-.19-2.38-.84-5.45-3.21-6.5a1,1,0,0,0-1.38,1.06c.51,2.14,1.93,3.8,2.2,6.09.31,2.61.18,7.84-1.38,10l1.18.32c.2-2.33-1-4.47-2.12-6.42a37.38,37.38,0,0,1-3.84-7.95c-.4-1.25-2.44-1.1-2.37.32Z"/></g></g><path id="_Path_43" data-name="&lt;Path&gt;" class="cls-20" d="M212.79,84.14c-5.16-1.06-10.65-.33-15.73.82a104.36,104.36,0,0,0-10.54,3.11c-5.06,1.7-8.23.73-12.15-3.1a1.68,1.68,0,0,0-2.6.33,10.86,10.86,0,0,0-1.69,8.27L165,89.83a1.29,1.29,0,0,0-1.9.77c-.88,5.56-1.44,11.48,2.32,16.16,3.43,4.27,9.17,6,14.39,6.82,14.76,2.23,28.52-4.28,41.66-10.11,1.13-.5.15-2.13-1-1.65l-1.3.54,2.73-1.91v0c.05.88,1.32,1.38,1.78.48C227.55,93.42,219.68,85.55,212.79,84.14Z"/><g id="_Group_28" data-name="&lt;Group&gt;"><path id="_Path_44" data-name="&lt;Path&gt;" class="cls-31" d="M191.6,159.54a15.26,15.26,0,0,0,17-1s2,18.76-5.48,19.3S191.6,159.54,191.6,159.54Z"/><g id="_Group_29" data-name="&lt;Group&gt;"><path id="_Path_45" data-name="&lt;Path&gt;" class="cls-16" d="M229.51,158.58l-13.63-4.75-9.66-1.2c0,2.67-.65,20.13-6.37,22.89-5.63-2.72-6.7-19.69-6.75-22.76l-18.77,3.1.09,9.37-3.62,19,2.62,39.73s13,2.73,24.77,3.83c18.68,1.75,27-3.83,27-3.83l3.58-39.19Z"/></g></g><g id="_Group_30" data-name="&lt;Group&gt;"><path id="_Path_46" data-name="&lt;Path&gt;" class="cls-19" d="M150.45,90.68s1.61-6.45.8-6.74-1.47-.4-2,.72-2.3,5.08-2.3,5.08l-1.6-3.53s-1.81-8.52-2.17-9.52A1.14,1.14,0,0,0,141,77c-.06.69,1,9.92,1,9.92s-3.6-10.36-4.37-10.82-2.13,0-1.86,1.65c.09.56,2.69,10.54,2.69,10.54s-3.19-6.17-4.1-7a1.11,1.11,0,0,0-1.9.74c-.12.8,3.85,9.63,3.85,9.63a25.57,25.57,0,0,0-3-2.88,1,1,0,0,0-1.47,1.07c.15,1,6.62,10.27,6.62,10.27l1.29,6.2,9.35-3.22a40,40,0,0,1-.8-4.8C148.53,97.87,150.45,90.68,150.45,90.68Z"/><polygon id="_Path_47" data-name="&lt;Path&gt;" class="cls-32" points="149.51 101.95 149.02 99.27 136.37 101.35 137.12 105.05 149.51 101.95"/><path id="_Path_48" data-name="&lt;Path&gt;" class="cls-16" d="M148.58,156c-6.56-16-12.22-51.59-12.22-51.59L150.08,101s9.08,31.18,13.91,41.07c2.33,4.76,8.64,12.81,12.54,15.39-2.64,10.88.9,19-5,28.18l.09-1S154.36,170.09,148.58,156Z"/></g><polygon id="_Path_49" data-name="&lt;Path&gt;" class="cls-33" points="250.08 137.12 264.9 137.12 262.99 143.72 252.22 143.72 250.08 137.12"/><g id="_Group_31" data-name="&lt;Group&gt;"><path id="_Path_50" data-name="&lt;Path&gt;" class="cls-19" d="M277.13,105.34s8.85-4.72,10.1,2-2.79,13.37-10,9.71S277.13,105.34,277.13,105.34Z"/><path id="_Path_51" data-name="&lt;Path&gt;" class="cls-21" d="M279.76,110.82c.59-2.2,1.3-3.45,2.17-3.84a3.57,3.57,0,0,1,4.53,1.6.42.42,0,0,1-.72.43,3.28,3.28,0,0,0-2.13-1.49c1.29,1.32,2.66,3.76.87,6a.44.44,0,0,1-.33.15.43.43,0,0,1-.26-.09.42.42,0,0,1-.06-.59c2-2.52-1.13-5.19-1.27-5.3l0,0-.26.1c-.28.13-1,.7-1.71,3.3a.41.41,0,0,1-.4.3h-.11A.42.42,0,0,1,279.76,110.82Z"/></g><g id="_Group_32" data-name="&lt;Group&gt;"><path id="_Path_52" data-name="&lt;Path&gt;" class="cls-19" d="M237.85,105.34s-8.85-4.72-10.1,2,2.79,13.37,10,9.71S237.85,105.34,237.85,105.34Z"/><path id="_Path_53" data-name="&lt;Path&gt;" class="cls-21" d="M235.22,110.82c-.59-2.2-1.3-3.45-2.16-3.84a3.58,3.58,0,0,0-4.54,1.6.42.42,0,0,0,.15.57.41.41,0,0,0,.57-.14,3.28,3.28,0,0,1,2.13-1.49c-1.29,1.32-2.66,3.76-.87,6a.44.44,0,0,0,.33.15.43.43,0,0,0,.26-.09.43.43,0,0,0,.07-.59c-2-2.52,1.13-5.19,1.26-5.3l0,0,.26.1c.28.13,1,.7,1.71,3.3a.42.42,0,0,0,.4.3h.11A.42.42,0,0,0,235.22,110.82Z"/></g><g id="_Group_33" data-name="&lt;Group&gt;"><path id="_Path_54" data-name="&lt;Path&gt;" class="cls-19" d="M257.51,128.11a6.29,6.29,0,0,0-6.54,6v7.57l0,0v-.1a6.52,6.52,0,0,0,6.52,6.52h0A6.52,6.52,0,0,0,264,141.6v-1h.07v-6.52A6.29,6.29,0,0,0,257.51,128.11Z"/><g id="_Clip_Group_3" data-name="&lt;Clip Group&gt;"><g class="cls-34"><g id="_Group_34" data-name="&lt;Group&gt;" class="cls-23"><path id="_Path_55" data-name="&lt;Path&gt;" class="cls-19" d="M287.5,80.37H229s-2.56,34,1.39,43c2.15,4.89,9.33,9.86,16.12,14a22.91,22.91,0,0,0,23.85-.08c6.66-4.15,13.64-9.09,15.78-14C290.06,114.34,287.5,80.37,287.5,80.37Z"/></g></g></g></g><path id="_Path_56" data-name="&lt;Path&gt;" class="cls-19" d="M281.42,97a11.75,11.75,0,0,0-11.75-11.39H245.52a12,12,0,0,0-12,11.6c-.27,9.2.91,21.25,2.76,25.84,1.72,4.26,6.35,8.6,11.78,12.23a17,17,0,0,0,19.06-.07c5.32-3.62,9.79-7.93,11.5-12.16C280.52,118.4,281.69,106.21,281.42,97Z"/><g id="_Clip_Group_4" data-name="&lt;Clip Group&gt;"><g class="cls-35"><g id="_Group_35" data-name="&lt;Group&gt;"><path id="_Path_57" data-name="&lt;Path&gt;" class="cls-25" d="M268.16,122.56c-.42-1.11-2-.82-4.71.42a17.53,17.53,0,0,1-11.91.26c-2.82-1.06-4.22-1.17-4.72-.21s2.63,6.62,8.56,7.31a18.09,18.09,0,0,0,4.59-.1C265.88,129.34,268.63,123.8,268.16,122.56Z"/></g><g id="_Group_36" data-name="&lt;Group&gt;"><g id="_Group_37" data-name="&lt;Group&gt;"><path id="_Path_58" data-name="&lt;Path&gt;" class="cls-26" d="M249.38,121.8s.1,3.94,7.45,4.06,9.52-1.8,9.55-4.52Z"/></g></g><g id="_Group_38" data-name="&lt;Group&gt;"><g id="_Group_39" data-name="&lt;Group&gt;"><path id="_Path_59" data-name="&lt;Path&gt;" class="cls-19" d="M252.09,129.62s5.06-3,12.88-.19l-6,3.89Z"/></g></g><g id="_Group_40" data-name="&lt;Group&gt;" class="cls-27"><g id="_Group_41" data-name="&lt;Group&gt;"><path id="_Path_60" data-name="&lt;Path&gt;" class="cls-19" d="M252.09,129.62s5.06-3,12.88-.19l-6,3.89Z"/></g></g></g></g><g id="_Group_42" data-name="&lt;Group&gt;" class="cls-23"><path id="_Path_61" data-name="&lt;Path&gt;" class="cls-19" d="M253,112.91l-.17.72c-.05.23-.11.51-.16.83a3.18,3.18,0,0,0,0,1c.05.21.5.5.84.74s.81.46,1.24.68a6.08,6.08,0,0,0,2.83.7,5.25,5.25,0,0,0,.75-.1c.24-.06.49-.13.73-.21a8.88,8.88,0,0,0,1.38-.57,11,11,0,0,0,1.23-.7,3.28,3.28,0,0,0,.48-.4.41.41,0,0,0,.13-.18.74.74,0,0,0,.05-.25,10.32,10.32,0,0,0-.05-1.92c0-.48-.06-.75-.06-.75s.08.26.21.72c.05.24.11.52.19.84a6,6,0,0,1,.14,1.13,1.14,1.14,0,0,1,0,.37.89.89,0,0,1-.19.36,4.19,4.19,0,0,1-.51.52,8.8,8.8,0,0,1-1.23.89,9.49,9.49,0,0,1-1.47.7,6.91,6.91,0,0,1-.81.24,5.77,5.77,0,0,1-.85.14,6.16,6.16,0,0,1-3.25-.88,8.23,8.23,0,0,1-1.24-.86,4.8,4.8,0,0,1-.53-.47,2.91,2.91,0,0,1-.24-.27.77.77,0,0,1-.16-.38,2.73,2.73,0,0,1,.17-1.17c.1-.32.2-.59.29-.81C252.88,113.15,253,112.91,253,112.91Z"/></g><g id="_Group_43" data-name="&lt;Group&gt;"><g id="_Group_44" data-name="&lt;Group&gt;"><path id="_Path_62" data-name="&lt;Path&gt;" class="cls-28" d="M239,119.88a.06.06,0,0,0,0-.11.06.06,0,0,0,0,.11Z"/></g></g><g id="_Group_45" data-name="&lt;Group&gt;"><path id="_Path_63" data-name="&lt;Path&gt;" class="cls-29" d="M248.53,106.28a2.43,2.43,0,1,1-2.43-2.42A2.43,2.43,0,0,1,248.53,106.28Z"/><path id="_Path_64" data-name="&lt;Path&gt;" class="cls-29" d="M271.3,106.28a2.43,2.43,0,1,1-2.42-2.42A2.42,2.42,0,0,1,271.3,106.28Z"/></g><g id="_Group_46" data-name="&lt;Group&gt;"><path id="_Path_65" data-name="&lt;Path&gt;" class="cls-30" d="M239.77,101.24a12.45,12.45,0,0,1,7.29-4.56"/><path id="_Path_66" data-name="&lt;Path&gt;" class="cls-30" d="M275.21,101.24a12.45,12.45,0,0,0-7.29-4.56"/></g><path id="_Compound_Path_" data-name="&lt;Compound Path&gt;" class="cls-20" d="M283.59,88.64a20.87,20.87,0,0,0-3.27-8.73,19.81,19.81,0,0,0,2.15-3.86,17.44,17.44,0,0,0,.93-9.9,1.63,1.63,0,0,0-2.71-.71,20.36,20.36,0,0,1-6.41,4.06,13.85,13.85,0,0,0,2.05-6c.1-1.33-1.39-1.82-2.4-1.38-4.47,2-10,3.1-14.59,5.34.12-.23.22-.48.32-.73.38-.33,2.17-5.21.81-5.15s-2.27,2.59-5.86,3.61c-2.2.72-29.05,2-22.93,31.75a34.48,34.48,0,0,0,1.48,6.71l.06.78c.13,1.48,2.45,1.51,2.34,0,0-.1,0-.2,0-.3s0-.06,0-.1a1.48,1.48,0,0,1,0-.21c0-.71,0-1.44,0-2.19a24.38,24.38,0,0,1,1.68-7.2,8.65,8.65,0,0,1,6.55-5.17c4-.59,9,.8,13.31,1.42,5.79.81,14.53-4.07,19.32-.22,2.65,3.38,2.85,9,3.58,13.13.26,1.43,2.47,1,2.49-.33C282.61,98.19,284.37,93.84,283.59,88.64Z"/><g id="_Group_47" data-name="&lt;Group&gt;"><polygon id="_Path_67" data-name="&lt;Path&gt;" class="cls-36" points="250.08 137.12 245.56 140.37 249.83 151.69 257.47 148.12 250.08 137.12"/><polygon id="_Path_68" data-name="&lt;Path&gt;" class="cls-36" points="264.9 137.12 269.41 140.37 265.98 151.69 257.51 148.12 264.9 137.12"/></g><path id="_Path_69" data-name="&lt;Path&gt;" class="cls-19" d="M274.56,228.43s-5,3.71-4.56,4.4.83,1.16,1.84.63,4.66-2.31,4.66-2.31l-.92,3.5s-3.72,7.22-4,8.16.87,2,1.74,1.11c.45-.47,5.11-7.78,5.11-7.78s-3.5,9.62-3.22,10.41,1.51,1.28,2.32-.1c.26-.46,4.27-9.21,4.27-9.21s-1.33,6.35-1.15,7.46a1,1,0,0,0,1.81.59c.57-.51,2.9-9.24,2.9-9.24a24.59,24.59,0,0,0,.47,3.86.9.9,0,0,0,1.7.09c.46-.79,1.27-11.33,1.27-11.33l2.73-5.24-8.67-3.19a36.52,36.52,0,0,1-2.25,3.94C280.18,224.36,274.56,228.43,274.56,228.43Z"/><polygon id="_Path_70" data-name="&lt;Path&gt;" class="cls-37" points="279.19 218.36 284.3 193.41 285.63 205.24 279.19 218.36"/><polygon id="_Path_71" data-name="&lt;Path&gt;" class="cls-36" points="281.56 216.73 279.93 221.99 291.46 227.61 293.64 224.08 281.56 216.73"/><path id="_Path_72" data-name="&lt;Path&gt;" class="cls-18" d="M286.84,143.19s19.27,29.8,20.51,36.9-13.48,46.2-13.48,46.2l-14.68-7.93,10.91-33.7-9-22.27Z"/></g><g id="_Group_48" data-name="&lt;Group&gt;"><polygon id="_Path_73" data-name="&lt;Path&gt;" class="cls-32" points="149.32 288.13 122.32 285.42 122.32 285.39 122.19 285.4 122.05 285.39 122.05 285.42 95.05 288.13 91.72 315.16 92.58 315.26 122.05 315.26 122.32 315.26 151.79 315.26 152.65 315.16 149.32 288.13"/><path id="_Path_74" data-name="&lt;Path&gt;" class="cls-16" d="M122.07,302.12c12.94-.36,30.46-3.59,30.46-3.59l-4-69.93c.29-3.06.34-4.64-2.86-5.67-4.42-1.43-22.28-9.59-22.28-9.59h-.25v0h-3v0H120s-17.26,8.16-21.52,9.59c-3.1,1-3,2.61-2.71,5.67L91,298.53s17.76,3.23,30.25,3.59Z"/><g id="_Group_49" data-name="&lt;Group&gt;"><path id="_Path_75" data-name="&lt;Path&gt;" class="cls-19" d="M82,248.05s-2.39,15.05-1.45,16.61,16.52,5.7,27.08,3.2,23.19-8.22,23.19-8.22l-26.14-6.91-11.25,1S85.44,251.53,82,248.05Z"/><g id="_Clip_Group_5" data-name="&lt;Clip Group&gt;"><g class="cls-38"><path id="_Path_76" data-name="&lt;Path&gt;" class="cls-39" d="M97.78,254.79s11.33,4.46,11.33,5.74.85,5.09-29.72,3.94c0,0,23.3,14.45,45.33,7.18s6.07-10.47,6.07-10.47Z"/></g></g></g><g id="_Group_50" data-name="&lt;Group&gt;"><path id="_Path_77" data-name="&lt;Path&gt;" class="cls-16" d="M78,249.91,91.63,254l5.69-1.64,2.76-2.61L117.51,243l-.1-29.7s-24,5.75-31,13.87C82.31,232,78,249.91,78,249.91Z"/><path id="_Path_78" data-name="&lt;Path&gt;" class="cls-40" d="M91.68,253.89s1.88-10.42,4.06-17.51l.8,18.41Z"/></g><g id="_Group_51" data-name="&lt;Group&gt;"><path id="_Path_79" data-name="&lt;Path&gt;" class="cls-16" d="M166.42,249.91,152.74,254l-5.69-1.64-2.76-2.61L127,243v-29.7s24,5.75,31,13.87C162.06,232,166.42,249.91,166.42,249.91Z"/><path id="_Path_80" data-name="&lt;Path&gt;" class="cls-40" d="M152.69,253.89s-1.88-10.42-4.06-17.51l-.8,18.41Z"/></g><g id="_Group_52" data-name="&lt;Group&gt;"><path id="_Path_81" data-name="&lt;Path&gt;" class="cls-41" d="M141.74,247.55s2-4.09,2.55-5,2.73.47,1.9,2.27-1.2,2.45-1.2,2.45Z"/><path id="_Path_82" data-name="&lt;Path&gt;" class="cls-19" d="M130.38,255s12.15-8.92,12.73-8.92,9.26-.21,9.83-.09.64,1.07.5,1.54a.69.69,0,0,1-.63.51l-5.93.4v.12s5.42,0,7.68.12a.9.9,0,0,1,.84.92h0a.91.91,0,0,1-.85.89l-6.83.53,8.12.48.73,2.33-19.9,3.07Z"/></g><g id="_Group_53" data-name="&lt;Group&gt;"><g id="_Group_54" data-name="&lt;Group&gt;"><path id="_Path_83" data-name="&lt;Path&gt;" class="cls-19" d="M161.94,251a94.5,94.5,0,0,1,1.31,10.43c0,3-5.45,6.27-8.05,6.45s-55.7-12.21-58.55-12.45a38.42,38.42,0,0,1-5.33-.83s2.6-5,7.4-6.53,10.26.92,13.51,1.69,20.64,3.15,29.73,3A184.5,184.5,0,0,0,161.94,251Z"/><g id="_Clip_Group_6" data-name="&lt;Clip Group&gt;"><g class="cls-42"><path id="_Path_84" data-name="&lt;Path&gt;" class="cls-43" d="M161.64,264.47s-14.74-1.37-33.49-4.65-36.83-5.24-36.83-5.24l64.25,15.22Z"/></g></g></g><g id="_Group_55" data-name="&lt;Group&gt;" class="cls-44"><path id="_Path_85" data-name="&lt;Path&gt;" class="cls-19" d="M133.76,252.53l.92,0,2.41,0c2,0,4.64,0,7.29,0s5.28.08,7.27.08H153c.41,0,.76,0,1.05,0l.92,0-.9.22c-.28.06-.63.13-1,.19s-.86.16-1.36.21a53.8,53.8,0,0,1-7.32.35c-2.66,0-5.32-.24-7.3-.47-1-.11-1.82-.25-2.39-.34S133.76,252.53,133.76,252.53Z"/></g></g><g id="_Group_56" data-name="&lt;Group&gt;"><g id="_Group_57" data-name="&lt;Group&gt;"><path id="_Path_86" data-name="&lt;Path&gt;" class="cls-20" d="M131.7,155.27c2.11-1.71,5.26-1.05,7.69.15a17.87,17.87,0,0,1,9.09,9.78,21.39,21.39,0,0,1,1,5.78c.17,2.9-.22,6.23-2.58,7.93a1.57,1.57,0,0,1-1,.37c-.68-.05-1.08-.78-1.3-1.43-.7-2-1-4.2-1.6-6.28-1.71-6-5.75-11-9.92-15.59"/><g id="_Group_58" data-name="&lt;Group&gt;"><path id="_Path_87" data-name="&lt;Path&gt;" class="cls-20" d="M132.39,156.45c5.33-3,12.23,3.8,14.18,8.08a17.52,17.52,0,0,1,1.45,7.08c0,2.52-1,7.06-2.73,2.7-1.47-3.64-2-7.11-4.14-10.52-2-3.08-4.43-6.71-7.6-8.58-.83-.49-1.56.45-1.22,1.22,1.68,3.72,5,6.59,6.95,10.25s2.06,8.26,4,11.95c2.56,4.88,6.69,0,7.47-3.45a19.24,19.24,0,0,0-4.82-16.76c-3.68-3.85-9.82-7.45-14.93-4.33a1.37,1.37,0,0,0,1.38,2.36Z"/></g></g><g id="_Group_59" data-name="&lt;Group&gt;"><path id="_Path_88" data-name="&lt;Path&gt;" class="cls-20" d="M99.63,179c-4.26-6.08-3.92-14.77.19-20.94s11.52-9.79,18.93-10c4-.13,8.32.83,10.82,3.92.68.83,1.19,2.06.57,2.94a2.85,2.85,0,0,1-1.13.8c-4.08,1.91-8.61,2.53-13,3.52s-8.88,2.45-12.06,5.63A14.45,14.45,0,0,0,100.42,179"/><g id="_Group_60" data-name="&lt;Group&gt;"><path id="_Path_89" data-name="&lt;Path&gt;" class="cls-20" d="M100.5,178.48A18.45,18.45,0,0,1,107,153.35a23.72,23.72,0,0,1,13.29-3.52c1.95.09,4.67.43,6.23,1.71,4.44,3.66-1.88,4-4.33,4.56-6.76,1.66-14.12,2.41-19.21,7.75-3.83,4-5,10.2-3.69,15.48a1.21,1.21,0,0,0,2.33-.64c-4.28-17,15.83-16.66,26.33-20.66,8.92-3.4,1-10.43-4.93-11.49-17.56-3.16-35.68,16.64-24.23,33a1,1,0,0,0,1.74-1Z"/></g></g><g id="_Group_61" data-name="&lt;Group&gt;"><path id="_Path_90" data-name="&lt;Path&gt;" class="cls-19" d="M141.11,179.79s8.38-4.46,9.57,1.92-2.65,12.67-9.48,9.21S141.11,179.79,141.11,179.79Z"/><path id="_Path_91" data-name="&lt;Path&gt;" class="cls-21" d="M143.6,185c.56-2.08,1.23-3.27,2.05-3.64a3.41,3.41,0,0,1,4.3,1.51.41.41,0,0,1-.14.55.39.39,0,0,1-.54-.14,3.15,3.15,0,0,0-2-1.41c1.22,1.26,2.52,3.57.82,5.68a.41.41,0,0,1-.31.14.39.39,0,0,1-.25-.08.41.41,0,0,1-.06-.56c1.93-2.39-1.07-4.92-1.2-5s0,0,0,0a1.84,1.84,0,0,0-.25.09c-.26.12-.95.66-1.62,3.12a.39.39,0,0,1-.38.3l-.1,0A.39.39,0,0,1,143.6,185Z"/></g><g id="_Group_62" data-name="&lt;Group&gt;"><path id="_Path_92" data-name="&lt;Path&gt;" class="cls-19" d="M103.89,179.79s-8.38-4.46-9.57,1.92,2.65,12.67,9.48,9.21S103.89,179.79,103.89,179.79Z"/><path id="_Path_93" data-name="&lt;Path&gt;" class="cls-21" d="M101.4,185c-.56-2.08-1.24-3.27-2.05-3.64a3.41,3.41,0,0,0-4.3,1.51.41.41,0,0,0,.14.55.39.39,0,0,0,.54-.14,3.15,3.15,0,0,1,2-1.41c-1.22,1.26-2.52,3.57-.82,5.68a.4.4,0,0,0,.62-.5c-1.93-2.39,1.07-4.92,1.19-5l0,0a2.5,2.5,0,0,1,.25.09c.26.12,1,.66,1.62,3.12a.39.39,0,0,0,.38.3l.1,0A.39.39,0,0,0,101.4,185Z"/></g><g id="_Group_63" data-name="&lt;Group&gt;"><path id="_Path_94" data-name="&lt;Path&gt;" class="cls-19" d="M128.15,207.06a6.22,6.22,0,0,0-12.39,0l0,6.82a6.21,6.21,0,0,0,6.2,6.21h0a6.21,6.21,0,0,0,6.2-6.2Z"/><g id="_Clip_Group_7" data-name="&lt;Clip Group&gt;"><g class="cls-45"><g id="_Group_64" data-name="&lt;Group&gt;" class="cls-23"><path id="_Path_95" data-name="&lt;Path&gt;" class="cls-19" d="M150.37,156.13H94.91s-2.43,32.19,1.32,40.71c2,4.63,8.83,9.35,15.27,13.3a21.71,21.71,0,0,0,22.6-.08c6.31-3.93,12.92-8.61,15-13.22C152.8,188.32,150.37,156.13,150.37,156.13Z"/></g></g></g></g><path id="_Path_96" data-name="&lt;Path&gt;" class="cls-19" d="M145.17,171.87A11.12,11.12,0,0,0,134,161.08H111.16a11.34,11.34,0,0,0-11.34,11c-.25,8.72.87,20.13,2.62,24.48,1.63,4,6,8.14,11.16,11.59a16.13,16.13,0,0,0,18.06-.07c5-3.43,9.28-7.51,10.9-11.52C144.32,192.18,145.43,180.62,145.17,171.87Z"/><g id="_Clip_Group_8" data-name="&lt;Clip Group&gt;"><g class="cls-46"><g id="_Group_65" data-name="&lt;Group&gt;"><path id="_Path_97" data-name="&lt;Path&gt;" class="cls-25" d="M131.93,196.12c-.38-1.06-1.75-.78-4.16.4a14.53,14.53,0,0,1-10.52.24c-2.49-1-3.73-1.11-4.17-.2s2.32,6.28,7.56,6.92a14.49,14.49,0,0,0,4.06-.09C129.91,202.53,132.34,197.29,131.93,196.12Z"/></g><g id="_Group_66" data-name="&lt;Group&gt;"><g id="_Group_67" data-name="&lt;Group&gt;"><path id="_Path_98" data-name="&lt;Path&gt;" class="cls-26" d="M115.34,195.4s.09,3.73,6.58,3.84,8.4-1.71,8.43-4.29Z"/></g></g><g id="_Group_68" data-name="&lt;Group&gt;"><g id="_Group_69" data-name="&lt;Group&gt;"><path id="_Path_99" data-name="&lt;Path&gt;" class="cls-19" d="M117.73,202.81s4.47-2.86,11.38-.18l-5.34,3.68Z"/></g></g><g id="_Group_70" data-name="&lt;Group&gt;" class="cls-27"><g id="_Group_71" data-name="&lt;Group&gt;"><path id="_Path_100" data-name="&lt;Path&gt;" class="cls-19" d="M117.73,202.81s4.47-2.86,11.38-.18l-5.34,3.68Z"/></g></g></g></g><g id="_Group_72" data-name="&lt;Group&gt;" class="cls-23"><path id="_Path_101" data-name="&lt;Path&gt;" class="cls-19" d="M118.25,188.68l-.16.68c0,.22-.1.49-.14.79a3.16,3.16,0,0,0,0,1c0,.2.47.47.8.7s.76.43,1.17.64a5.75,5.75,0,0,0,2.69.66,4.59,4.59,0,0,0,.7-.09,5.6,5.6,0,0,0,.7-.2,8.8,8.8,0,0,0,1.31-.54,10.69,10.69,0,0,0,1.16-.67,2.87,2.87,0,0,0,.45-.37c.07-.07.11-.1.13-.17a2,2,0,0,0,0-.24,10.15,10.15,0,0,0,0-1.82l-.06-.7s.08.24.2.68l.18.79a5.4,5.4,0,0,1,.13,1.07,1.38,1.38,0,0,1,0,.35.94.94,0,0,1-.19.34,3.78,3.78,0,0,1-.48.5,8.75,8.75,0,0,1-1.17.84,9.76,9.76,0,0,1-1.38.66,6.2,6.2,0,0,1-1.58.36,5.74,5.74,0,0,1-3.08-.84,8.41,8.41,0,0,1-1.18-.8l-.5-.45a2.53,2.53,0,0,1-.22-.26.67.67,0,0,1-.16-.36,2.83,2.83,0,0,1,.16-1.11c.1-.3.19-.56.28-.77A6.82,6.82,0,0,1,118.25,188.68Z"/></g><g id="_Group_73" data-name="&lt;Group&gt;"><g id="_Group_74" data-name="&lt;Group&gt;"><path id="_Path_102" data-name="&lt;Path&gt;" class="cls-28" d="M104.93,191.86a.05.05,0,1,0,0-.1.05.05,0,0,0,0,.1Z"/></g></g><g id="_Group_75" data-name="&lt;Group&gt;"><circle id="_Path_103" data-name="&lt;Path&gt;" class="cls-29" cx="111.71" cy="180.69" r="2.3"/><circle id="_Path_104" data-name="&lt;Path&gt;" class="cls-29" cx="133.29" cy="180.69" r="2.3"/></g><g id="_Group_76" data-name="&lt;Group&gt;"><path id="_Path_105" data-name="&lt;Path&gt;" class="cls-30" d="M105.71,175.91a11.88,11.88,0,0,1,6.9-4.32"/><path id="_Path_106" data-name="&lt;Path&gt;" class="cls-30" d="M139.29,175.91a11.88,11.88,0,0,0-6.9-4.32"/></g><g id="_Group_77" data-name="&lt;Group&gt;"><path id="_Path_107" data-name="&lt;Path&gt;" class="cls-20" d="M132.92,156c.3.48,0,1.1-.38,1.57a46.86,46.86,0,0,1-6.37,7.66,15.86,15.86,0,0,1-8.84,4.29,1.39,1.39,0,0,1-1.06-.2,1.32,1.32,0,0,1-.34-1c0-2.25,1.42-4.24,2.94-5.89a32.49,32.49,0,0,1,10.88-7.75"/><g id="_Group_78" data-name="&lt;Group&gt;"><path id="_Path_108" data-name="&lt;Path&gt;" class="cls-20" d="M132.23,155.82c-.79,2.83-4,5.87-6,7.87a18.19,18.19,0,0,1-4.21,3.14c-.56.28-4,1.8-4.64,1.42-1.56-1,4.88-7.09,5.84-7.87,2.29-1.87,4.92-3.23,7.25-5,.82-.65-.1-1.75-.92-1.59-4.81.92-9.39,4.74-12.42,8.46-1.44,1.77-4.53,7.22-.92,8.53s8.84-2.83,11.2-5.09a41.78,41.78,0,0,0,4.79-5.74c1.12-1.55,2.15-2.48,1.38-4.26-.25-.59-1.15-.38-1.3.17Z"/></g></g><g id="_Group_79" data-name="&lt;Group&gt;"><path id="_Path_109" data-name="&lt;Path&gt;" class="cls-20" d="M125.81,157.89a75,75,0,0,1-19.38,11.58c-1.21.49-2.69.92-3.74.16a2.56,2.56,0,0,1-.91-2.42,5.58,5.58,0,0,1,1.09-2.45,19.54,19.54,0,0,1,4.51-4.38,34.32,34.32,0,0,1,21-6.59"/><g id="_Group_80" data-name="&lt;Group&gt;"><path id="_Path_110" data-name="&lt;Path&gt;" class="cls-20" d="M125.06,157.14a57.4,57.4,0,0,1-11.45,7.41c-1.57.81-4.39,2.5-6,2.71q-2.89,2.09-2.54-2.51a15.58,15.58,0,0,1,1.69-1.66,30.47,30.47,0,0,1,11-6.07c3.59-1.14,7.34-1,10.9-2.06a1.23,1.23,0,0,0,0-2.35c-5.28-1.55-11.9.73-16.68,3-4.19,2-11.37,6.1-11.9,11.36-1.31,12.81,23.67-6.31,26.24-8.18a1.05,1.05,0,1,0-1.28-1.66Z"/></g></g><g id="_Group_81" data-name="&lt;Group&gt;"><path id="_Path_111" data-name="&lt;Path&gt;" class="cls-20" d="M132.42,157.29a33.92,33.92,0,0,0,1.88,13.4c.95,2.7,2.52,5.53,5.24,6.43a1.53,1.53,0,0,0,1,.06,1.42,1.42,0,0,0,.7-.78c.85-1.85,0-4-1-5.8A124.58,124.58,0,0,0,131.62,156"/><g id="_Group_82" data-name="&lt;Group&gt;"><path id="_Path_112" data-name="&lt;Path&gt;" class="cls-20" d="M131.51,157.29a28.85,28.85,0,0,0,1.9,15.34c1.08,2.41,4.33,7.45,7.76,6,3.22-1.37,1.83-6,.81-8.27-2.34-5.19-5.39-11.21-9.37-15.32-1.17-1.21-2.84.32-2.21,1.71a89.13,89.13,0,0,0,4.76,7.94c1.37,2.3,4.37,6,4.58,8.65.28,3.65-2.25.47-3.13-1.11a22.92,22.92,0,0,1-1.76-4.81,44.93,44.93,0,0,1-1.51-10.11.92.92,0,0,0-1.83,0Z"/></g></g><g id="_Group_83" data-name="&lt;Group&gt;"><path id="_Path_113" data-name="&lt;Path&gt;" class="cls-20" d="M133,156.91l4.23,8.86c2,4.25,4.21,8.7,8.06,11.43a2.43,2.43,0,0,0,1.36.55,1.73,1.73,0,0,0,1.52-1.41,4.3,4.3,0,0,0-.23-2.21,25.66,25.66,0,0,0-6.45-10.28,69.13,69.13,0,0,0-9.5-7.71"/><g id="_Group_84" data-name="&lt;Group&gt;"><path id="_Path_114" data-name="&lt;Path&gt;" class="cls-20" d="M132.12,157.14c1.19,3.46,10.12,28.24,16.85,21.23,3.1-3.23-1.35-9.64-3.33-12.3-3.2-4.31-8.2-9.33-13.33-11.2-1.38-.5-2,1.3-1.29,2.21,2.54,3.13,6.37,5.08,9.21,8,1.05,1.08,7.46,8.55,5.63,9.81-2.06,1.41-11-16.58-12.13-18.43-.51-.81-1.94-.3-1.61.68Z"/></g></g><g id="_Group_85" data-name="&lt;Group&gt;"><path id="_Path_115" data-name="&lt;Path&gt;" class="cls-20" d="M133.52,153.55a10.64,10.64,0,0,0-3.29-8.62.64.64,0,0,0-.38-.2c-.24,0-.41.24-.47.48a3.32,3.32,0,0,0,.58,2.27l3,5.62"/><g id="_Group_86" data-name="&lt;Group&gt;"><path id="_Path_116" data-name="&lt;Path&gt;" class="cls-20" d="M134.24,153.75a9.77,9.77,0,0,0-.39-6.07c-.62-1.42-2.14-4.39-4-4.39-4.81,0,.94,9.79,2.55,10.85a1.22,1.22,0,0,0,1.82-1c0-1.35-.81-2.4-1.45-3.56-.31-.57-1.85-3.74-2.19-3.57h-1.45c2.21,1.21,3.47,5.28,3.64,7.58.06.79,1.29,1.08,1.47.2Z"/></g></g><g id="_Group_87" data-name="&lt;Group&gt;"><path id="_Path_117" data-name="&lt;Path&gt;" class="cls-20" d="M127.56,153.88c-.17-3.38-3.52-5.75-6.78-6.67-8.54-2.42-17.86,1.57-24.16,7.83-1.76,1.75-3.45,4-3.09,6.48a17.65,17.65,0,0,0,8.68-4.71"/><g id="_Group_88" data-name="&lt;Group&gt;"><path id="_Path_118" data-name="&lt;Path&gt;" class="cls-20" d="M128.45,153.88c.54-8.4-11.32-9.54-17.26-8.55-7.54,1.25-19.32,7.41-19.41,16.19A1.77,1.77,0,0,0,94,163.2c3.56-.91,7.42-2.44,9.35-5.73a1.31,1.31,0,0,0-1.78-1.78c-3,1.4-5.17,3.28-8.5,4.14l2.21,1.69c.06-6.42,10-11.33,15.26-12.76,5.9-1.6,13.6-.73,16.26,5.57.38.88,1.61.33,1.66-.45Z"/></g></g><g id="_Group_89" data-name="&lt;Group&gt;"><path id="_Path_119" data-name="&lt;Path&gt;" class="cls-20" d="M94.93,157.13c2.14-5.86,8.09-9.52,14.07-11.32,4.36-1.32,9.15-1.86,13.39-.24s7.72,5.87,7.29,10.4"/><g id="_Group_90" data-name="&lt;Group&gt;"><path id="_Path_120" data-name="&lt;Path&gt;" class="cls-20" d="M96.37,158c5.1-11.77,28.8-17.74,31.57-1.53.3,1.74,3.16,1.71,3.48,0,1.78-9.28-8.79-14.34-16.54-13.73-8.91.7-18,5.5-21.57,14-.73,1.73,2.31,3,3.06,1.29Z"/></g></g><g id="_Group_91" data-name="&lt;Group&gt;"><path id="_Path_121" data-name="&lt;Path&gt;" class="cls-20" d="M133.52,152.23l-.39.33c1.3-2.56,4.48-3.73,7.34-3.44.42,0,.91.16,1.08.54.3.67-.56,1.23-1.25,1.45l-7.61,2.44"/><g id="_Group_92" data-name="&lt;Group&gt;"><path id="_Path_122" data-name="&lt;Path&gt;" class="cls-20" d="M133.52,151.22l-.39,0,.66,2.45c1.08-.82,1.75-1.88,3.05-2.44a7.46,7.46,0,0,1,1.92-.51,8.1,8.1,0,0,1,1-.05h.48q.5.08,0-.27l.14-1.1c-.44,1-3.56,1.49-4.54,1.82a10.18,10.18,0,0,0-3.82,1.71c-.69.63-.08,1.57.68,1.66,1.41.17,2.82-.5,4.16-.9a36.57,36.57,0,0,0,4.24-1.33c1.74-.75,2.78-2.88.95-4.22-1.65-1.2-4.55-.58-6.26.14s-3.75,2.24-4,4.35c-.15,1.48,2.25,1.77,2.59.35,0-.14.06-.28.1-.42a1,1,0,0,0-1-1.27Z"/></g></g><g id="_Group_93" data-name="&lt;Group&gt;"><g id="_Group_94" data-name="&lt;Group&gt;"><g id="_Group_95" data-name="&lt;Group&gt;"><path id="_Path_123" data-name="&lt;Path&gt;" class="cls-47" d="M104.37,174h12.3a2.93,2.93,0,0,1,3,2.85v5.39a5.94,5.94,0,0,1-6.09,5.78h-6a6.06,6.06,0,0,1-6.21-5.9v-5.27A2.93,2.93,0,0,1,104.37,174Z"/><path id="_Path_124" data-name="&lt;Path&gt;" class="cls-48" d="M104.37,174h12.3a2.93,2.93,0,0,1,3,2.85v5.39a5.94,5.94,0,0,1-6.09,5.78h-6a6.06,6.06,0,0,1-6.21-5.9v-5.27A2.93,2.93,0,0,1,104.37,174Z"/><line id="_Path_125" data-name="&lt;Path&gt;" class="cls-49" x1="99.79" y1="178.27" x2="101.36" y2="179.01"/></g><g id="_Group_96" data-name="&lt;Group&gt;"><path id="_Path_126" data-name="&lt;Path&gt;" class="cls-47" d="M141.2,174H128.9a2.94,2.94,0,0,0-3,2.85v5.39a5.94,5.94,0,0,0,6.09,5.78h6a6.07,6.07,0,0,0,6.22-5.9v-5.27A2.94,2.94,0,0,0,141.2,174Z"/><path id="_Path_127" data-name="&lt;Path&gt;" class="cls-48" d="M141.2,174H128.9a2.94,2.94,0,0,0-3,2.85v5.39a5.94,5.94,0,0,0,6.09,5.78h6a6.07,6.07,0,0,0,6.22-5.9v-5.27A2.94,2.94,0,0,0,141.2,174Z"/><line id="_Path_128" data-name="&lt;Path&gt;" class="cls-49" x1="145.79" y1="178.27" x2="144.22" y2="179.01"/></g></g><line id="_Path_129" data-name="&lt;Path&gt;" class="cls-50" x1="120.11" y1="179.5" x2="125.34" y2="179.5"/></g></g></g><g id="_Group_97" data-name="&lt;Group&gt;"><g id="_Group_98" data-name="&lt;Group&gt;"><path id="_Path_130" data-name="&lt;Path&gt;" class="cls-20" d="M247.26,214.89c-1.32-4.44-3.35-8.73-4.17-13.31s-.49-9.12-1-13.64c-.69-6.08-2-12.92-6.69-17.31a14.12,14.12,0,0,0-7.38-3.4c-.92-.17-4.34-.84-3.85-.29-.73-.57-1.4-1.47-2.13-2a18.11,18.11,0,0,0-6.28-2.79C204,159.38,190.4,166.23,187,179c-2.41,9,.63,18.18-1.94,27.3-2,7.13-4.28,34.95-.65,42,.4.77,2.93,11.43,3.64,11.08,9.11-4.5,16.65,3,25.43,3.93,11,1.16,27.47-2.68,33.11-7.11C249.79,251.34,248.57,220.28,247.26,214.89Z"/><g id="_Group_99" data-name="&lt;Group&gt;"><path id="_Path_131" data-name="&lt;Path&gt;" class="cls-19" d="M232,197.24s8.14-4.33,9.29,1.86-2.57,12.29-9.2,8.93S232,197.24,232,197.24Z"/><path id="_Path_132" data-name="&lt;Path&gt;" class="cls-20" d="M236.6,206.86a.67.67,0,1,0,.67-.67A.67.67,0,0,0,236.6,206.86Z"/><path id="_Path_133" data-name="&lt;Path&gt;" class="cls-21" d="M234.45,202.28c.55-2,1.2-3.17,2-3.53a3.31,3.31,0,0,1,4.17,1.47.39.39,0,0,1-.66.4,3,3,0,0,0-2-1.37c1.19,1.22,2.45,3.46.8,5.5a.38.38,0,0,1-.3.15.38.38,0,0,1-.24-.09.38.38,0,0,1-.06-.54c1.87-2.31-1-4.77-1.16-4.87l0,0-.24.09c-.25.12-.92.64-1.57,3a.38.38,0,0,1-.37.28h-.1A.4.4,0,0,1,234.45,202.28Z"/></g><g id="_Group_100" data-name="&lt;Group&gt;"><path id="_Path_134" data-name="&lt;Path&gt;" class="cls-19" d="M195.92,197.24s-8.13-4.33-9.28,1.86,2.56,12.29,9.19,8.93S195.92,197.24,195.92,197.24Z"/><path id="_Path_135" data-name="&lt;Path&gt;" class="cls-20" d="M191.35,206.86a.67.67,0,1,1-.67-.67A.67.67,0,0,1,191.35,206.86Z"/><path id="_Path_136" data-name="&lt;Path&gt;" class="cls-21" d="M193.5,202.28c-.54-2-1.19-3.17-2-3.53a3.31,3.31,0,0,0-4.17,1.47.39.39,0,0,0,.66.4,3,3,0,0,1,2-1.37c-1.18,1.22-2.44,3.46-.79,5.5a.35.35,0,0,0,.29.15.4.4,0,0,0,.25-.09.38.38,0,0,0,0-.54c-1.86-2.31,1-4.77,1.17-4.87s0,0,0,0l.23.09c.26.12.92.64,1.57,3a.38.38,0,0,0,.37.28h.1A.38.38,0,0,0,193.5,202.28Z"/></g><g id="_Group_101" data-name="&lt;Group&gt;"><path id="_Path_137" data-name="&lt;Path&gt;" class="cls-19" d="M221.18,231.91l-1.72-1.23v-7a6,6,0,0,0-12,0v7.35l-1.7.86-1,11.07h19.66Z"/><g id="_Clip_Group_9" data-name="&lt;Clip Group&gt;"><g class="cls-51"><g id="_Group_102" data-name="&lt;Group&gt;" class="cls-23"><path id="_Path_138" data-name="&lt;Path&gt;" class="cls-19" d="M241,174.28H187.2s-2.35,31.23,1.28,39.5c2,4.5,8.58,9.07,14.83,12.91a21.09,21.09,0,0,0,21.93-.08c6.12-3.82,12.53-8.36,14.5-12.83C243.38,205.51,241,174.28,241,174.28Z"/></g></g></g></g><path id="_Path_139" data-name="&lt;Path&gt;" class="cls-19" d="M236,189.56a10.8,10.8,0,0,0-10.8-10.48H203a11,11,0,0,0-11,10.67c-.24,8.46.84,19.54,2.55,23.76,1.58,3.91,5.83,7.9,10.83,11.24a15.63,15.63,0,0,0,17.52-.06c4.89-3.33,9-7.29,10.57-11.18C235.15,209.26,236.23,198,236,189.56Z"/><g id="_Clip_Group_10" data-name="&lt;Clip Group&gt;"><g class="cls-52"><g id="_Group_103" data-name="&lt;Group&gt;"><path id="_Path_140" data-name="&lt;Path&gt;" class="cls-25" d="M222.24,213.08c-.33-1-1.53-.75-3.65.39a11.64,11.64,0,0,1-9.22.24c-2.18-1-3.27-1.08-3.66-.2s2,6.09,6.63,6.72a11.77,11.77,0,0,0,3.56-.09C220.47,219.31,222.6,214.21,222.24,213.08Z"/></g><g id="_Group_104" data-name="&lt;Group&gt;"><g id="_Group_105" data-name="&lt;Group&gt;"><path id="_Path_141" data-name="&lt;Path&gt;" class="cls-26" d="M207.69,212.38s.08,3.62,5.78,3.73,7.37-1.66,7.39-4.16Z"/></g></g><g id="_Group_106" data-name="&lt;Group&gt;"><g id="_Group_107" data-name="&lt;Group&gt;"><path id="_Path_142" data-name="&lt;Path&gt;" class="cls-19" d="M209.8,219.57s3.91-2.77,10-.17L215.09,223Z"/></g></g><g id="_Group_108" data-name="&lt;Group&gt;" class="cls-27"><g id="_Group_109" data-name="&lt;Group&gt;"><path id="_Path_143" data-name="&lt;Path&gt;" class="cls-19" d="M209.8,219.57s3.91-2.77,10-.17L215.09,223Z"/></g></g></g></g><g id="_Group_110" data-name="&lt;Group&gt;" class="cls-23"><path id="_Path_144" data-name="&lt;Path&gt;" class="cls-19" d="M209.85,204.2s0,.24-.15.67c0,.21-.1.47-.14.76a2.7,2.7,0,0,0,0,.94c0,.19.45.46.77.68s.74.42,1.14.62a5.63,5.63,0,0,0,2.6.65,4.57,4.57,0,0,0,.69-.1,5.61,5.61,0,0,0,.67-.19,7.91,7.91,0,0,0,1.27-.53,10.1,10.1,0,0,0,1.13-.64,4.25,4.25,0,0,0,.44-.36c.06-.07.1-.1.12-.17a.64.64,0,0,0,.05-.23,9.61,9.61,0,0,0-.05-1.77l-.06-.68s.08.24.2.66c0,.21.1.47.17.77a5.08,5.08,0,0,1,.13,1,1.31,1.31,0,0,1,0,.34,1,1,0,0,1-.18.33,3.05,3.05,0,0,1-.47.48,7.93,7.93,0,0,1-1.13.81,9.36,9.36,0,0,1-1.35.65c-.24.08-.49.16-.75.22a6,6,0,0,1-.78.13,5.58,5.58,0,0,1-3-.81,7.51,7.51,0,0,1-1.15-.79c-.17-.14-.33-.28-.48-.43a1.71,1.71,0,0,1-.22-.25.66.66,0,0,1-.15-.35,2.61,2.61,0,0,1,.15-1.07c.09-.3.19-.55.27-.75C209.74,204.42,209.85,204.2,209.85,204.2Z"/></g><g id="_Group_111" data-name="&lt;Group&gt;"><g id="_Group_112" data-name="&lt;Group&gt;"><path id="_Path_145" data-name="&lt;Path&gt;" class="cls-28" d="M196.93,210.61a.05.05,0,1,0,0-.1.05.05,0,0,0,0,.1Z"/></g></g><g id="_Group_113" data-name="&lt;Group&gt;"><path id="_Path_146" data-name="&lt;Path&gt;" class="cls-29" d="M205.74,198.11a2.23,2.23,0,1,1-2.23-2.23A2.23,2.23,0,0,1,205.74,198.11Z"/><path id="_Path_147" data-name="&lt;Path&gt;" class="cls-29" d="M226.68,198.11a2.23,2.23,0,1,1-2.23-2.23A2.23,2.23,0,0,1,226.68,198.11Z"/></g><g id="_Group_114" data-name="&lt;Group&gt;"><path id="_Path_148" data-name="&lt;Path&gt;" class="cls-30" d="M197.69,193.47a11.44,11.44,0,0,1,6.69-4.19"/><path id="_Path_149" data-name="&lt;Path&gt;" class="cls-30" d="M230.27,193.47a11.5,11.5,0,0,0-6.7-4.19"/></g><path id="_Path_150" data-name="&lt;Path&gt;" class="cls-32" d="M219.46,174.92a21.25,21.25,0,0,0,16.63,17.64l1.18-7.53S230.55,174.79,219.46,174.92Z"/><path id="_Path_151" data-name="&lt;Path&gt;" class="cls-32" d="M222.22,171.28s4.16,10.26-6.93,16.67c-10.07,5.81-14.25-6.09-23.29,7.82a17.08,17.08,0,0,1,.62-16.69C195.4,174.21,214.18,166.79,222.22,171.28Z"/></g><g id="_Group_115" data-name="&lt;Group&gt;"><path id="_Path_152" data-name="&lt;Path&gt;" class="cls-19" d="M260.09,161.27s-1.49-5.93-.74-6.2,1.36-.36,1.8.67,2.11,4.67,2.11,4.67l1.48-3.25s1.67-7.83,2-8.75a1,1,0,0,1,2,.24c.06.64-.94,9.12-.94,9.12s3.32-9.52,4-10,2,0,1.71,1.53c-.08.51-2.48,9.69-2.48,9.69s2.94-5.68,3.77-6.41a1,1,0,0,1,1.76.67c.11.74-3.55,8.86-3.55,8.86a23,23,0,0,1,2.77-2.65.89.89,0,0,1,1.35,1c-.14.89-5.46,8.57-5.46,8.57l-1.82,6.57-8.6-3a37.61,37.61,0,0,0,.74-4.42C261.84,167.88,260.09,161.27,260.09,161.27Z"/><polygon id="_Path_153" data-name="&lt;Path&gt;" class="cls-32" points="259.87 171.2 260.5 168.77 271.96 171.52 270.94 174.08 259.87 171.2"/><path id="_Path_154" data-name="&lt;Path&gt;" class="cls-16" d="M260.73,227.32c6-14.72,11.23-53.43,11.23-53.43l-12.61-3.12s-8.35,29.67-12.79,38.77c-2.14,4.37-10.61,17.3-14.2,19.67,2.43,10,7.17,19.49,12.64,27.91l-.09-.88S255.42,240.29,260.73,227.32Z"/></g><path id="_Path_155" data-name="&lt;Path&gt;" class="cls-31" d="M224.25,294.7l4.11-58.36c-16.4,9.48-27.32.26-27.32.26l4.65,58.1Z"/><path id="_Path_156" data-name="&lt;Path&gt;" class="cls-16" d="M203.51,296.75c-.13-3,6.11-8.28,6.08-11.59-.27-38.92-3.63-48.62-3.85-53.25l-12.49,3.88c-11.85,3.69-18,13.47-18.41,25.88l-1.64,33Z"/><path id="_Path_157" data-name="&lt;Path&gt;" class="cls-16" d="M245,257.12a110,110,0,0,1-7.53-13.52,11.06,11.06,0,0,0-1.27-2.87,77.07,77.07,0,0,1-3.84-11.52,2.84,2.84,0,0,1-.7.35c-5.4,1.4-10.51,2.35-10.51,2.35l0,.19c-.28,5-2.84,26.09-3.85,53.06-.12,3.31-.24,6.52-.37,9.54h31.58Z"/><polygon id="_Path_158" data-name="&lt;Path&gt;" class="cls-53" points="191.35 294.7 188.02 259.38 188.02 294.7 191.35 294.7"/><path id="_Rectangle_5" data-name="&lt;Rectangle&gt;" class="cls-20" d="M167,257.12h89.9a4.93,4.93,0,0,1,4.93,4.93v53.21a0,0,0,0,1,0,0H162.08a0,0,0,0,1,0,0V262A4.93,4.93,0,0,1,167,257.12Z"/><path id="_Path_159" data-name="&lt;Path&gt;" class="cls-54" d="M218.19,290.52a6.23,6.23,0,1,1-6.23-6.23A6.23,6.23,0,0,1,218.19,290.52Z"/></g><g id="_Group_116" data-name="&lt;Group&gt;"><path id="_Path_160" data-name="&lt;Path&gt;" class="cls-20" d="M299.77,277.61l-2.64,37.65,59.94-.18s-1.48-27.73-5.67-36.91S299.77,277.61,299.77,277.61Z"/><path id="_Path_161" data-name="&lt;Path&gt;" class="cls-16" d="M312.76,220h3.95l16.34,1.26,8.45,1.58,13,37.18,3.43,38.91s-40.81,4.09-61.61,0L297,237.2Z"/><g id="_Group_117" data-name="&lt;Group&gt;"><path id="_Path_162" data-name="&lt;Path&gt;" class="cls-19" d="M298.88,151.45c-.62-.42-1.17-.65-1.82.19s-3.05,3.81-3.05,3.81l-.6-3.34s.31-7.62.22-8.55a1,1,0,0,0-1.92-.25c-.21.57-1.28,8.63-1.28,8.63s-.82-9.57-1.37-10.13-1.8-.49-1.93,1c-.05.49,0,9.53,0,9.53s-1.38-5.94-2-6.81a1,1,0,0,0-1.78.21c-.28.66,1.18,9,1.18,9a22.66,22.66,0,0,0-1.93-3.11.84.84,0,0,0-1.47.6c-.09.85,3,9.2,3,9.2l.13,6.49,8.64-.71a33.37,33.37,0,0,1,.36-4.25c.26-.3,3.44-6,3.44-6S299.5,151.87,298.88,151.45Z"/><path id="_Path_163" data-name="&lt;Path&gt;" class="cls-16" d="M297,237.2l14.4-2.92L312.76,220c.38.15-2.8-2.4-4.63-4.58-5-6-9.3-8.79-9.88-11.6-1.46-7-3.49-41.84-3.49-41.84l-14.39,1.39s-1,34.24,1.57,49.45C283.17,220.15,294.36,231.93,297,237.2Z"/></g><g id="_Group_118" data-name="&lt;Group&gt;"><g id="_Group_119" data-name="&lt;Group&gt;"><path id="_Path_164" data-name="&lt;Path&gt;" class="cls-20" d="M327.86,161.58c-.22-2.59-2.72-4.39-5.18-5.23-6.45-2.18-14.48.43-17.59,6.49-2.49,4.82-1.67,10.58-2.06,16"/><g id="_Group_120" data-name="&lt;Group&gt;"><path id="_Path_165" data-name="&lt;Path&gt;" class="cls-20" d="M329.29,161.58c-.32-8.88-12.89-9.33-18.92-6.45a14.81,14.81,0,0,0-7.87,8.65c-1.35,4.22-2.08,11.4,0,15.37a.65.65,0,0,0,1.12,0c1.42-2.18,1.12-4.34,1.28-6.9.26-4,1-8.05,3.93-11,4.4-4.32,14.82-5.62,17.83,1,.59,1.31,2.71.63,2.66-.72Z"/></g></g><path id="_Path_166" data-name="&lt;Path&gt;" class="cls-20" d="M316.83,202.87a29.63,29.63,0,0,0-3.94-5.43,17.18,17.18,0,0,1-4.22-7.4c-.68-2.32-1.93-5-4.23-5.25a.83.83,0,0,0-1.19-1c-3.94,1.8-3.75,6.07-4.51,9.76-1,5.07-5.3,8.42-6.48,13.36-.23,1-.47,2.33.35,3.17,1.07,1.12,1.37.21,2.51.24,3.28.07,4.78,2.34,7.64,3.14,1.24.35,2.86.3,4.05.53,1.44.27,2.81.86,4.27,1.07,2.73.4,5.86,0,7.28-2.74C320,209.34,318.31,205.58,316.83,202.87Z"/><g id="_Group_121" data-name="&lt;Group&gt;"><path id="_Path_167" data-name="&lt;Path&gt;" class="cls-20" d="M302.2,185.06a85.55,85.55,0,0,1-.1-9.06,22.6,22.6,0,0,1,1-6.7,15.81,15.81,0,0,1,5.61-7.25c2.46-1.82,5.58-3.08,8.43-2.15a8.93,8.93,0,0,1,5,4.87,29.18,29.18,0,0,1,2,7.07"/><g id="_Group_122" data-name="&lt;Group&gt;"><path id="_Path_168" data-name="&lt;Path&gt;" class="cls-20" d="M303.14,185.06c.53-6.74-.23-15.29,5.15-20.22,3.87-3.55,9.18-4.74,12,.72,1.18,2.31,1.17,4.86,2.59,7,.64,1,2.43,1,2.7-.35,1.67-8.38-6.51-17.17-14.86-13.46-10.67,4.74-11.25,16.54-9.4,26.54.21,1.11,1.79.74,1.86-.26Z"/></g></g><path id="_Path_169" data-name="&lt;Path&gt;" class="cls-20" d="M357.19,214a1.16,1.16,0,0,0-.18-.46,17.34,17.34,0,0,0-2.73-3.14c-2.84-2.74-2.61-5.7-1-8.81s1.85-6.73,2.35-10.37c1-7,0-25.29-4.48-31-3.78-4.85-26.69-18.89-35.74-3.43-2.44,4.18,10.35,7.16,9.69,12.52-.87,7,6.95,9.91,11.8,12.52,8.93,4.81,8.64,15.2.75,21-2.72,2-5.75,2.78-8.78,4.12-1.7.75-4.4,2.24-4.53,4.43a3.76,3.76,0,0,0,1.86,3.11c1.22.65,2.49.39,3.74,1,1.66.88,2.39,2.6,3.94,3.7,2.35,1.66,4.24,1.32,6.73.49,3.37-1.12,5.79,1.8,9.26,1.7.46,0,.94-.37,1.36-.36.76,0,1.66.53,2.45.54,1.05,0,1.14.22,2.16-.6C357.92,219.34,358,216.25,357.19,214Z"/><g id="_Group_123" data-name="&lt;Group&gt;"><path id="_Path_170" data-name="&lt;Path&gt;" class="cls-19" d="M341.16,190.27s8.76-2.28,8.45,3.89-5.26,11.16-10.83,6.43S341.16,190.27,341.16,190.27Z"/><path id="_Path_171" data-name="&lt;Path&gt;" class="cls-21" d="M342.32,195.63c1-1.8,1.87-2.75,2.71-2.92a3.24,3.24,0,0,1,3.64,2.36.37.37,0,1,1-.71.23,3,3,0,0,0-1.56-1.76c.85,1.44,1.54,3.87-.5,5.44a.34.34,0,0,1-.32.07.39.39,0,0,1-.21-.13.37.37,0,0,1,.07-.53c2.31-1.79.1-4.8,0-4.92l0,0-.25,0c-.27,0-1,.4-2.19,2.53a.38.38,0,0,1-.42.19l-.09,0A.38.38,0,0,1,342.32,195.63Z"/></g><g id="_Group_124" data-name="&lt;Group&gt;"><path id="_Path_172" data-name="&lt;Path&gt;" class="cls-19" d="M307.73,182.39s-6.36-6.43-9.24-1-1.18,12.27,6,11S307.73,182.39,307.73,182.39Z"/><path id="_Path_173" data-name="&lt;Path&gt;" class="cls-21" d="M304,186.41c.07-2-.2-3.32-.84-3.89a3.24,3.24,0,0,0-4.34.17.38.38,0,1,0,.5.56,3,3,0,0,1,2.24-.71c-1.47.79-3.3,2.53-2.35,4.93a.35.35,0,0,0,.24.22.43.43,0,0,0,.25,0,.38.38,0,0,0,.21-.49c-1.08-2.72,2.36-4.17,2.51-4.23l0,0,.2.16c.2.18.67.87.58,3.29a.39.39,0,0,0,.27.38h.1A.37.37,0,0,0,304,186.41Z"/></g><g id="_Group_125" data-name="&lt;Group&gt;"><path id="_Path_174" data-name="&lt;Path&gt;" class="cls-19" d="M330.67,212.77a5.93,5.93,0,0,0-11.76-1.06l-.59,6.48c-.29,3.25,2.1,4.51,5.35,4.81h0a5.91,5.91,0,0,0,6.41-5.35Z"/><g id="_Clip_Group_11" data-name="&lt;Clip Group&gt;"><g class="cls-55"><g id="_Group_126" data-name="&lt;Group&gt;" class="cls-23"><path id="_Path_175" data-name="&lt;Path&gt;" class="cls-19" d="M347.75,161.56l-26.41.77h0l-26.4.78s-1.41,30.72,2.4,38.73c2.07,4.35,8.67,8.65,14.92,12.24a20.7,20.7,0,0,0,21.52-.71c5.89-3.93,12.06-8.57,13.86-13C351,192.14,347.75,161.56,347.75,161.56Z"/></g></g></g></g><path id="_Path_176" data-name="&lt;Path&gt;" class="cls-19" d="M346.68,183.83a10.6,10.6,0,0,0-7.92-12.47l-10.69-2.55h0l-10.5-2.52A10.8,10.8,0,0,0,304.62,174c-2.17,8-3.66,18.85-3,23.27.62,4.1,3.77,8.88,7.78,13.21a15.35,15.35,0,0,0,16.74,3.94c5.44-2.07,10.26-4.91,12.65-8.27C341.4,202.45,345,192,346.68,183.83Z"/><g id="_Clip_Group_12" data-name="&lt;Clip Group&gt;"><g class="cls-56"><g id="_Group_127" data-name="&lt;Group&gt;"><path id="_Path_177" data-name="&lt;Path&gt;" class="cls-25" d="M311.67,202.87c.37-.93,1.32-.56,2.94.7a8.46,8.46,0,0,0,7.51,1.08c1.88-.71,2.77-.71,3,.15s-2.26,5.5-6.08,5.66a8.35,8.35,0,0,1-2.89-.42C312.5,208.85,311.26,203.9,311.67,202.87Z"/></g><g id="_Group_128" data-name="&lt;Group&gt;"><g id="_Group_129" data-name="&lt;Group&gt;"><path id="_Path_178" data-name="&lt;Path&gt;" class="cls-26" d="M323.62,203.57s-.42,3.37-5.08,2.94-5.86-2.23-5.64-4.56Z"/></g></g><g id="_Group_130" data-name="&lt;Group&gt;"><g id="_Group_131" data-name="&lt;Group&gt;"><path id="_Path_179" data-name="&lt;Path&gt;" class="cls-19" d="M321.2,210.08s-2.93-3-8.13-1.08l3.47,3.76Z"/></g></g><g id="_Group_132" data-name="&lt;Group&gt;" class="cls-27"><g id="_Group_133" data-name="&lt;Group&gt;"><path id="_Path_180" data-name="&lt;Path&gt;" class="cls-19" d="M321.2,210.08s-2.93-3-8.13-1.08l3.47,3.76Z"/></g></g></g></g><g id="_Group_134" data-name="&lt;Group&gt;" class="cls-23"><path id="_Path_181" data-name="&lt;Path&gt;" class="cls-19" d="M314.87,193.15l-.3.6a6.87,6.87,0,0,0-.31.7,2.6,2.6,0,0,0-.23.89c0,.2.33.55.59.83a11.24,11.24,0,0,0,.94.85,5.37,5.37,0,0,0,2.34,1.21,4.24,4.24,0,0,0,.68.07l.68,0a8.32,8.32,0,0,0,1.34-.21,8.69,8.69,0,0,0,1.22-.36,2.9,2.9,0,0,0,.5-.24.57.57,0,0,0,.16-.14.78.78,0,0,0,.09-.21,10.36,10.36,0,0,0,.37-1.69l.09-.67s0,.25,0,.68c0,.21,0,.47,0,.77a5.94,5.94,0,0,1-.11,1,1.92,1.92,0,0,1-.11.31,1,1,0,0,1-.25.28,4,4,0,0,1-.56.35,7.06,7.06,0,0,1-1.26.51,8.36,8.36,0,0,1-1.44.31,6.33,6.33,0,0,1-.76,0,6.18,6.18,0,0,1-.78-.06,5.49,5.49,0,0,1-2.66-1.46,7.19,7.19,0,0,1-.92-1c-.13-.17-.25-.35-.36-.52a2.7,2.7,0,0,1-.15-.29.63.63,0,0,1-.07-.37,2.44,2.44,0,0,1,.4-1c.15-.26.3-.48.42-.65C314.7,193.34,314.87,193.15,314.87,193.15Z"/></g><g id="_Group_135" data-name="&lt;Group&gt;"><g id="_Group_136" data-name="&lt;Group&gt;"><path id="_Path_182" data-name="&lt;Path&gt;" class="cls-28" d="M305,193.44c.06,0,.09-.09,0-.1s-.08.08,0,.1Z"/></g></g><g id="_Group_137" data-name="&lt;Group&gt;"><path id="_Path_183" data-name="&lt;Path&gt;" class="cls-29" d="M313.28,185.41a2.19,2.19,0,1,1-1.55-2.68A2.19,2.19,0,0,1,313.28,185.41Z"/><path id="_Path_184" data-name="&lt;Path&gt;" class="cls-29" d="M333.15,190.69A2.19,2.19,0,1,1,331.6,188,2.18,2.18,0,0,1,333.15,190.69Z"/></g><g id="_Group_138" data-name="&lt;Group&gt;"><path id="_Path_185" data-name="&lt;Path&gt;" class="cls-30" d="M307.92,178.53a11.25,11.25,0,0,1,7.49-2"/><path id="_Path_186" data-name="&lt;Path&gt;" class="cls-30" d="M338.52,187.88a11.29,11.29,0,0,0-5.09-5.86"/></g><g id="_Group_139" data-name="&lt;Group&gt;"><g id="_Group_140" data-name="&lt;Group&gt;"><path id="_Path_187" data-name="&lt;Path&gt;" class="cls-20" d="M351.18,186.74a1.22,1.22,0,0,0,0-2.43,1.22,1.22,0,0,0,0,2.43Z"/></g></g><path id="_Path_188" data-name="&lt;Path&gt;" class="cls-20" d="M344.41,166.64c-3.91-4.54-13.46-9.19-19.45-6.21-4.92,2.45-5.59,11.23-3.16,15.47,4.78,8.33,20.54,3.85,23.18,13.66.11.44.75.25.67-.19,0-.07,0-.13,0-.2l1.48-1.51c.48.41,1.43.34,1.54-.41C349.6,180.55,349,172,344.41,166.64Z"/><g id="_Group_141" data-name="&lt;Group&gt;"><path id="_Path_189" data-name="&lt;Path&gt;" class="cls-20" d="M322.18,166.12A11,11,0,0,1,315,171c-1.72.32-3.52.23-5.16.84a10.27,10.27,0,0,0-6,6c-.21.53-.94,1.11-1.19.6a.63.63,0,0,1-.05-.31,24.2,24.2,0,0,1,2.05-10.89c1.59-3.63,4.93-6.74,8.89-7s8.06,3.19,7.61,7.13"/><g id="_Group_142" data-name="&lt;Group&gt;"><path id="_Path_190" data-name="&lt;Path&gt;" class="cls-20" d="M321.29,165.24c-1.69,1.71-3.22,3.41-5.6,4.14-2.09.65-4.33.44-6.4,1.2a11.07,11.07,0,0,0-3.67,2.27c-.74.68-3.23,3.2-2.95,4.29l1.29,1c.07-.64.12-1.28.14-1.93a27.32,27.32,0,0,1,.48-3.82,17.75,17.75,0,0,1,2.47-6.25c3.72-5.47,11.36-5.66,12.63,1.64.25,1.45,2.6,1.41,2.89,0,1.17-5.72-5.11-10-10.34-9-6.57,1.21-9.89,8-10.82,14-.25,1.61-1.14,5.48.42,6.75,1.24,1,2.38.08,3.14-1,1.42-2,2.06-3.84,4.52-5,2.18-1,4.67-.72,6.95-1.37a10.93,10.93,0,0,0,6.82-5.34c.6-1.23-.92-2.59-2-1.52Z"/></g></g><polygon id="_Path_191" data-name="&lt;Path&gt;" class="cls-20" points="316.1 215.72 324.27 216.95 332.33 216.58 332.8 224.09 324.55 223.82 315.43 222.74 316.1 215.72"/><polygon id="_Path_192" data-name="&lt;Path&gt;" class="cls-57" points="316.1 215.72 324.27 216.95 332.33 216.58 332.8 224.09 324.55 223.82 315.43 222.74 316.1 215.72"/></g><g id="_Group_143" data-name="&lt;Group&gt;"><path id="_Path_193" data-name="&lt;Path&gt;" class="cls-40" d="M330.35,268.28S348.06,278.8,356.49,282l-.45-4.87Z"/><path id="_Path_194" data-name="&lt;Path&gt;" class="cls-19" d="M327.39,245.17c-.65.37-1.1.76-.63,1.72s2.07,4.41,2.07,4.41l-3.26-.93s-6.7-3.64-7.58-4-1.89.78-1.07,1.61c.42.43,7.19,4.95,7.19,4.95s-9-3.48-9.7-3.23-1.23,1.4,0,2.18c.42.25,8.56,4.19,8.56,4.19s-5.94-1.38-7-1.22a1,1,0,0,0-.59,1.68c.46.54,8.61,2.91,8.61,2.91a22.61,22.61,0,0,0-3.63.37.84.84,0,0,0-.12,1.58c.72.46,9.58,1.35,9.58,1.35l5.88,2.74,3.18-8.06a34.09,34.09,0,0,1-3.66-2.2c-.16-.36-3.87-5.72-3.87-5.72S328.05,244.79,327.39,245.17Z"/><path id="_Path_195" data-name="&lt;Path&gt;" class="cls-16" d="M341.5,222.84s8,1.41,11.84,6.35c3.17,4.11,18.25,37.18,15.7,42-.76,1.45-2.23,10.29-7.31,9.08-12-2.86-31.38-12-31.38-12l6.82-14.73,14,3.44-5.44-17.3Z"/><polygon id="_Path_196" data-name="&lt;Path&gt;" class="cls-40" points="337.17 253.55 351.15 256.43 351.15 256.99 337.17 253.55"/></g></g><g id="_Group_144" data-name="&lt;Group&gt;"><path id="_Path_197" data-name="&lt;Path&gt;" class="cls-58" d="M271.72,279.7v-6.47a2.24,2.24,0,0,0-2.24-2.24h0a2.24,2.24,0,0,0-2.24,2.24v8.56a2.54,2.54,0,0,0,2.54,2.54h9.62v-4.49h-7.54A.14.14,0,0,1,271.72,279.7Z"/><path id="_Path_198" data-name="&lt;Path&gt;" class="cls-59" d="M286.47,290.17v-6.48a2.24,2.24,0,0,1,2.24-2.24h0a2.25,2.25,0,0,1,2.25,2.24v8.56a2.55,2.55,0,0,1-2.55,2.54h-9.62V290.3h7.54A.13.13,0,0,0,286.47,290.17Z"/><path id="_Path_199" data-name="&lt;Path&gt;" class="cls-60" d="M271.72,279.7v-6.47a2.24,2.24,0,0,0-2.24-2.24h0a2.24,2.24,0,0,0-2.24,2.24v8.56a2.54,2.54,0,0,0,2.54,2.54h9.62v-4.49h-7.54A.14.14,0,0,1,271.72,279.7Z"/><path id="_Path_200" data-name="&lt;Path&gt;" class="cls-61" d="M286.47,290.17v-6.48a2.24,2.24,0,0,1,2.24-2.24h0a2.25,2.25,0,0,1,2.25,2.24v8.56a2.55,2.55,0,0,1-2.55,2.54h-9.62V290.3h7.54A.13.13,0,0,0,286.47,290.17Z"/><path id="_Path_201" data-name="&lt;Path&gt;" class="cls-62" d="M280.07,264.51h0a3.88,3.88,0,0,1,3.88,3.88v33.54a3.87,3.87,0,0,1-3.88,3.87h0a3.87,3.87,0,0,1-3.87-3.87V268.39A3.88,3.88,0,0,1,280.07,264.51Z"/><path id="_Path_202" data-name="&lt;Path&gt;" class="cls-63" d="M280.07,264.51h0a3.88,3.88,0,0,1,3.88,3.88v33.54a3.87,3.87,0,0,1-3.88,3.87h0a3.87,3.87,0,0,1-3.87-3.87V268.39A3.88,3.88,0,0,1,280.07,264.51Z"/><g id="_Group_145" data-name="&lt;Group&gt;"><polygon id="_Path_203" data-name="&lt;Path&gt;" class="cls-20" points="288.71 314.32 271.88 314.32 271.03 299.2 289.57 299.2 288.71 314.32"/><rect id="_Path_204" data-name="&lt;Path&gt;" class="cls-20" x="269.48" y="296.82" width="21.64" height="5.21"/><rect id="_Path_205" data-name="&lt;Path&gt;" class="cls-64" x="269.48" y="296.82" width="21.64" height="5.21"/><rect id="_Path_206" data-name="&lt;Path&gt;" class="cls-20" x="269.48" y="296.82" width="21.64" height="5.21"/><rect id="_Path_207" data-name="&lt;Path&gt;" class="cls-65" x="269.48" y="296.82" width="21.64" height="5.21"/></g></g></g><g id="_Group_146" data-name="&lt;Group&gt;"><rect id="_Rectangle_6" data-name="&lt;Rectangle&gt;" class="cls-20" x="61.2" y="314.32" width="324.88" height="5.66"/><rect id="_Rectangle_7" data-name="&lt;Rectangle&gt;" class="cls-66" x="61.2" y="314.32" width="324.88" height="5.66"/></g></g></g></g></svg>