<?xml version="1.0" encoding="utf-8"?>
<!-- Generator: Adobe Illustrator 22.0.0, SVG Export Plug-In . SVG Version: 6.00 Build 0)  -->
<svg version="1.1" id="Layer_1" xmlns="http://www.w3.org/2000/svg" xmlns:xlink="http://www.w3.org/1999/xlink" x="0px" y="0px"
	 viewBox="0 0 1040 961.8" style="enable-background:new 0 0 1040 961.8;" xml:space="preserve">
<style type="text/css">
	.st0{fill:#FFFFFF;}
	.st1{fill:#555555;}
</style>
<g>
	<circle class="st0" cx="471.2" cy="554.8" r="404.9"/>
	<path class="st0" d="M705.2,11.9l-9.8,242.6c-2,50,36.9,92.3,87,94.3l242.6,9.8l-15.9-6C861.7,297,749.7,174.1,708.1,22L705.2,11.9
		z"/>
	<path class="st1" d="M357.7,626.6l-9.2,129.3c13.2,0,18.8-5.7,25.7-12.4l61.7-58.9l127.8,93.6c23.5,13.1,39.9,6.2,46.2-21.5
		l83.9-393.1l0,0c7.4-34.7-12.5-48.2-35.4-39.7L165.5,512.6c-33.7,13.1-33.2,31.8-5.7,40.3l126.1,39.2l292.8-183.2
		c13.8-9.1,26.3-4.1,16,5.1L357.7,626.6z"/>
</g>
</svg>
