<svg height="480pt" viewBox="0 0 480 480" width="480pt" xmlns="http://www.w3.org/2000/svg"><path d="m432 240c0 106.039062-85.960938 192-192 192s-192-85.960938-192-192 85.960938-192 192-192 192 85.960938 192 192zm0 0" fill="#cfd2fc"/><path d="m325.824219 154.175781c-12.496094-12.496093-32.757813-12.496093-45.257813 0l-11.308594 11.3125-113.136718 113.136719-12.121094 57.375 57.375-12.121094 113.136719-113.136718 11.3125-11.308594c12.496093-12.5 12.496093-32.761719 0-45.257813zm0 0" fill="#5153ff"/><g fill="#8690fa"><path d="m240 480c-132.546875 0-240-107.453125-240-240s107.453125-240 240-240 240 107.453125 240 240c-.148438 132.484375-107.515625 239.851562-240 240zm0-464c-123.710938 0-224 100.289062-224 224s100.289062 224 224 224 224-100.289062 224-224c-.140625-123.652344-100.347656-223.859375-224-224zm0 0"/><path d="m156.121094 278.625 45.253906 45.253906-57.375 12.121094zm0 0"/><path d="m325.828125 154.179688c12.496094 12.496093 12.496094 32.757812 0 45.253906l-11.3125 11.316406-45.257813-45.257812 11.316407-11.3125c12.496093-12.496094 32.757812-12.496094 45.253906 0zm0 0"/><path d="m336 344h-192c-4.417969 0-8-3.582031-8-8s3.582031-8 8-8h192c4.417969 0 8 3.582031 8 8s-3.582031 8-8 8zm0 0"/></g></svg>