<svg height="511pt" viewBox="-10 0 511 511.99944" width="511pt" xmlns="http://www.w3.org/2000/svg"><path d="m400.839844 385.394531c-36.617188-26.902343-79.429688-43.804687-124.382813-49.195312l16.300781-40.257813c1.023438-2.527344 3.046876-4.523437 5.554688-5.480468 28.113281-10.734376 52.136719-29.480469 69.480469-54.210938 17.746093-25.308594 27.125-55.082031 27.125-86.097656 0-39.902344-15.480469-77.472656-43.589844-105.785156-28.097656-28.300782-65.519531-44.054688-105.378906-44.36328175-36.875-.31250025-72.511719 13.07031275-100.332031 37.59765575-3.105469 2.738282-3.40625 7.480469-.664063 10.585938 2.738281 3.105469 7.476563 3.40625 10.582031.667969 25.046875-22.082031 57.113282-34.125 90.296875-33.851563 35.875.277344 69.5625 14.457032 94.851563 39.929688 25.300781 25.488281 39.234375 59.304687 39.234375 95.21875 0 27.917968-8.4375 54.710937-24.40625 77.484375-15.617188 22.269531-37.246094 39.148437-62.550781 48.8125-6.382813 2.433593-11.523438 7.488281-14.105469 13.863281l-21.21875 52.394531c-.027344.066407-.054688.136719-.082031.207031-.007813.019532-.015626.039063-.023438.058594l-8.003906 19.757813c-1.171875 2.898437-3.714844 3.207031-4.757813 3.207031-1.039062 0-3.585937-.3125-4.757812-3.207031l-9.214844-22.757813c-.039063-.09375-.074219-.191406-.117187-.285156l-19.992188-49.371094c-2.585938-6.382812-7.703125-11.429687-14.046875-13.847656-53.335937-20.332031-88.292969-72.375-86.984375-129.492188.640625-27.925781 9.8125-54.578124 26.527344-77.078124 2.46875-3.328126 1.773437-8.023438-1.550782-10.492188-3.324218-2.472656-8.023437-1.777344-10.492187 1.546875-18.574219 25.007813-28.769531 54.636719-29.480469 85.679687-1.453125 63.453126 37.382813 121.261719 96.636719 143.851563 2.460937.941406 4.460937 2.929687 5.488281 5.464844l16.296875 40.246093c-20.910156 2.503907-41.433593 7.503907-61.148437 14.914063-3.875 1.457031-5.839844 5.78125-4.382813 9.660156 1.132813 3.007813 3.988281 4.863281 7.023438 4.863281.875 0 1.769531-.15625 2.636719-.480468 13.382812-5.03125 27.164062-8.882813 41.191406-11.527344-18.261719 15.996094-34.242188 41.34375-46.742188 73.867188h-29.128906c8.921875-11.574219 14.105469-25.980469 14.105469-41.117188 0-36.84375-29.96875-67.046875-66.804688-67.328125-.175781-.003906-.347656-.003906-.519531-.003906-36.339844 0-66.488281 29.390625-67.320312 65.753906-.652344 28.398437 16.699218 54.277344 43.183593 64.449219l12.265625 30.285156c1.96875 4.855469 6.625 7.996094 11.863282 7.996094 5.238281 0 9.894531-3.140625 11.863281-7.996094l12.261719-30.285156c4.644531-1.78125 9.011718-4.058594 13.054687-6.753906h39.828125c-5.503906 16.660156-10.160156 34.910156-13.835938 54.507812h-115.148437c4.347656-9.753906 9.371094-19.308594 14.964844-28.457031 2.160156-3.535157 1.046875-8.152344-2.488281-10.3125-3.535157-2.160157-8.152344-1.046875-10.3125 2.488281-6.90625 11.304688-12.996094 23.183594-18.101563 35.335938-1.4882812 3.5625-1.09375 7.609374 1.046875 10.820312s5.71875 5.125 9.574219 5.125h465.519531c3.859375 0 7.441406-1.921875 9.582031-5.140625 2.136719-3.21875 2.519531-7.265625 1.019531-10.824219-18.488281-44.011718-48.675781-82.273437-87.292968-110.640625zm-312.875 49.882813c-3.804688 1.449218-6.867188 4.457031-8.402344 8.25l-10.257812 25.335937-10.261719-25.335937c-1.535157-3.796875-4.589844-6.800782-8.375-8.242188-20.652344-7.875-34.1875-28.023437-33.679688-50.144531.648438-28.261719 24.078125-51.097656 52.324219-51.097656h.40625c28.625.21875 51.917969 23.695312 51.917969 52.328125 0 21.5625-13.53125 41.214844-33.671875 48.90625zm133.066406-79.457032 5.078125 12.542969c3.09375 7.640625 10.417969 12.574219 18.660156 12.574219 8.242188 0 15.566407-4.933594 18.660157-12.574219l5.074218-12.527343c11.898438 6.632812 23.496094 18.308593 33.882813 34.1875 1.4375 2.203124 3.835937 3.398437 6.28125 3.398437 1.40625 0 2.832031-.398437 4.097656-1.226563 3.46875-2.265624 4.4375-6.914062 2.171875-10.382812-7.460938-11.40625-15.410156-20.820312-23.789062-28.179688 36.34375 6.859376 70.785156 21.789063 100.808593 43.847657 12.25 9 23.597657 19.050781 33.929688 30.007812h-88.105469c-2.480469-6.445312-5.101562-12.625-7.847656-18.488281-1.753906-3.753906-6.222656-5.367188-9.972656-3.613281-3.75 1.757812-5.367188 6.222656-3.609376 9.972656 1.824219 3.902344 3.59375 7.949219 5.296876 12.132813h-153.796876c14.296876-35.070313 32.78125-60.382813 53.179688-71.671876zm-73.28125 141.179688c3.820312-19.695312 8.703125-37.984375 14.449219-54.511719h165.105469c5.816406 16.710938 10.710937 35.101563 14.488281 54.511719zm209.3125 0c-3.621094-19.257812-8.324219-37.625-13.921875-54.511719h95.804687c13.34375 16.625 24.542969 34.933594 33.261719 54.511719zm0 0"/><path d="m182.703125 239.492188h124.140625c7.804688 0 14.160156-6.355469 14.160156-14.160157v-81.128906c5.722656-6.011719 9.238282-14.140625 9.238282-23.074219v-20.964844c0-.023437 0-.050781 0-.074218 0-.027344 0-.054688-.003907-.082032 0-.066406-.003906-.136718-.003906-.199218 0-.003906 0-.011719 0-.015625-.0625-1.230469-.417969-2.382813-1-3.386719l-20.136719-36.515625c-2.953125-5.347656-8.582031-8.671875-14.691406-8.671875h-31.058594c-.070312-.003906-.132812-.003906-.203125-.003906h-36.75c-.066406 0-.132812 0-.199219.003906h-31.058593c-6.109375 0-11.738281 3.324219-14.691407 8.671875l-20.140624 36.519531c-.617188 1.0625-.976563 2.292969-1.003907 3.605469v.054687c0 .03125-.003906.0625-.003906.09375v20.964844c0 8.9375 3.519531 17.066406 9.246094 23.078125v81.125c0 7.804688 6.351562 14.160157 14.160156 14.160157zm74.195313-173.277344 4.859374 26.449218h-33.972656l4.855469-26.449218zm58.34375 54.914062c0 10.191406-8.296876 18.488282-18.492188 18.488282s-18.488281-8.296876-18.488281-18.488282v-13.464844h36.980469zm-88.960938-13.460937h36.980469v13.460937c0 10.195313-8.296875 18.488282-18.492188 18.488282-10.195312 0-18.492187-8.292969-18.492187-18.488282v-13.460937zm-15 0v13.460937c0 10.195313-8.296875 18.488282-18.492188 18.488282-10.195312 0-18.492187-8.292969-18.492187-18.488282v-13.460937zm48.976562 116.824219h-30.972656v-47.199219h30.972656zm15 0v-52.894532c0-5.132812-4.175781-9.304687-9.304687-9.304687h-42.367187c-5.128907 0-9.300782 4.171875-9.300782 9.304687v52.894532h-30.742187v-71.171876c2.9375.84375 6.039062 1.296876 9.246093 1.296876 10.476563 0 19.84375-4.835938 25.992188-12.390626 6.144531 7.554688 15.511719 12.390626 25.988281 12.390626 10.476563 0 19.84375-4.835938 25.992188-12.390626 6.144531 7.554688 15.511719 12.390626 25.988281 12.390626 3.210938 0 6.3125-.453126 9.253906-1.300782v71.175782zm20.703126-157.355469 14.082031 25.527343h-33.035157l-4.859374-26.445312h22.257812c.648438-.003906 1.242188.347656 1.554688.917969zm-102.382813 0c.3125-.570313.910156-.921875 1.554687-.921875h22.257813l-4.855469 26.449218h-33.035156zm0 0"/><path d="m423.652344 306.949219c13.699218 0 24.847656-11.148438 24.847656-24.847657 0-13.703124-11.144531-24.851562-24.847656-24.851562s-24.851563 11.148438-24.851563 24.851562c0 13.699219 11.148438 24.847657 24.851563 24.847657zm0-34.695313c5.429687 0 9.847656 4.417969 9.847656 9.847656 0 5.429688-4.417969 9.847657-9.847656 9.847657-5.433594 0-9.851563-4.417969-9.851563-9.847657.003907-5.433593 4.421875-9.847656 9.851563-9.847656zm0 0"/><path d="m383.699219 237.007812c2.347656 3.414063 7.015625 4.277344 10.429687 1.933594 8.867188-6.09375 19.226563-9.261718 29.9375-9.1875 28.628906.21875 51.917969 23.695313 51.917969 52.328125 0 21.5625-13.53125 41.214844-33.667969 48.902344-3.804687 1.449219-6.867187 4.457031-8.402344 8.25l-10.261718 25.339844-10.257813-25.339844c-1.539062-3.792969-4.59375-6.796875-8.378906-8.238281-20.652344-7.875-34.1875-28.027344-33.679687-50.148438.175781-7.621094 1.96875-14.941406 5.332031-21.761718 1.835937-3.714844.308593-8.210938-3.402344-10.042969-3.71875-1.832031-8.214844-.308594-10.046875 3.40625-4.339844 8.792969-6.652344 18.230469-6.878906 28.054687-.652344 28.398438 16.695312 54.277344 43.1875 64.449219l12.261718 30.285156c1.96875 4.859375 6.625 7.996094 11.863282 7.996094 5.238281 0 9.898437-3.136719 11.863281-7.996094l12.265625-30.285156c25.847656-9.925781 43.203125-35.175781 43.203125-62.871094 0-36.84375-29.96875-67.046875-66.804687-67.328125-13.816407-.078125-27.136719 3.984375-38.546876 11.824219-3.414062 2.347656-4.277343 7.019531-1.933593 10.429687zm0 0"/><path d="m69.304688 361.542969c-13.703126 0-24.851563 11.148437-24.851563 24.847656 0 13.703125 11.148437 24.847656 24.851563 24.847656 13.699218 0 24.847656-11.144531 24.847656-24.847656 0-13.699219-11.148438-24.847656-24.847656-24.847656zm0 34.695312c-5.433594 0-9.851563-4.417969-9.851563-9.847656s4.417969-9.847656 9.851563-9.847656c5.429687 0 9.847656 4.417969 9.847656 9.847656s-4.417969 9.847656-9.847656 9.847656zm0 0"/></svg>