<?xml version="1.0" encoding="UTF-8"?>
<svg width="80px" height="50px" viewBox="0 0 80 50" version="1.1" xmlns="http://www.w3.org/2000/svg" xmlns:xlink="http://www.w3.org/1999/xlink">
    <!-- Generator: Sketch 61.2 (89653) - https://sketch.com -->
    <title>ic_ABA PAY</title>
    <desc>Created with Sketch.</desc>
    <g id="Brand-Guideline-v2.0" stroke="none" stroke-width="1" fill="none" fill-rule="evenodd">
        <g id="#4" transform="translate(-75.000000, -1988.000000)">
            <g id="Group-3" transform="translate(30.000000, 1843.000000)">
                <g id="ic_ABA-PAY" transform="translate(45.000000, 130.000000)">
                    <path d="M7.6916556,15 L72.3083444,15 C74.9829006,15 75.9527593,15.2784768 76.9305371,15.8013981 C77.9083149,16.3243194 78.6756806,17.0916851 79.1986019,18.0694629 C79.7215232,19.0472407 80,20.0170994 80,22.6916556 L80,56.5391136 C80,59.2136699 79.7215232,60.1835286 79.1986019,61.1613063 C78.6756806,62.1390841 77.9083149,62.9064498 76.9305371,63.4293711 C75.9527593,63.9522924 74.9829006,64.2307692 72.3083444,64.2307692 L7.6916556,64.2307692 C5.01709938,64.2307692 4.04724067,63.9522924 3.06946289,63.4293711 C2.09168511,62.9064498 1.32431939,62.1390841 0.801398111,61.1613063 C0.278476833,60.1835286 1.2037061e-16,59.2136699 -2.07168062e-16,56.5391136 L2.07168062e-16,22.6916556 C-1.2037061e-16,20.0170994 0.278476833,19.0472407 0.801398111,18.0694629 C1.32431939,17.0916851 2.09168511,16.3243194 3.06946289,15.8013981 C4.04724067,15.2784768 5.01709938,15 7.6916556,15 Z" id="Rectangle" fill="#055E7C"></path>
                    <g id="Group-14" transform="translate(13.538462, 26.076923)">
                        <path d="M52.3685864,10.7314978 C51.9045476,10.7314978 51.4837268,10.9151782 51.1753835,11.2126964 L44.3078872,16.7173329 L43.0071935,15.6892178 L37.4082545,11.2649408 L37.3085208,11.1802498 C37.2234701,11.1104073 37.2121115,11.1016082 37.0747006,11.0026188 C36.7738373,10.7807175 36.4361279,10.6371829 36.0474435,10.6371829 C35.140698,10.6371829 34.4059931,11.3878526 34.4059931,12.3136787 C34.4059931,12.8297985 34.6342724,13.2911992 34.9930367,13.5986163 L34.9933137,13.5988913 L34.99553,13.6008161 C35.0110442,13.6137397 35.0268353,13.6263883 35.0426265,13.639037 L41.4186573,18.8428557 L42.5384451,19.756858 L42.5426007,24.3098213 L42.5431548,24.3177954 C42.5514659,25.2323476 43.3008539,25.9711937 44.2242217,25.9711937 C45.1356769,25.9711937 45.8773077,25.2510456 45.9041804,24.3524417 L45.9075049,24.3466673 L45.9075049,19.7601576 L52.7018632,14.368259 L52.7786027,14.3041909 L52.977239,14.1394835 C53.0196258,14.1045622 53.0750334,14.0627667 53.1132647,14.0256456 L53.3811605,13.8026445 C53.7872983,13.4537068 54.0817897,12.9945059 54.0817897,12.431916 C54.0817897,11.4928914 53.3146713,10.7314978 52.3685864,10.7314978" id="Fill-4" fill="#00BCD4"></path>
                        <path d="M36.2627852,23.3640324 L28.1962682,11.3456171 C27.8879248,10.9172129 27.3754045,10.6372929 26.804429,10.6372929 C25.864993,10.6372929 25.1034154,11.3931871 25.1034154,12.3253374 C25.1034154,12.7014972 25.2272514,13.0485101 25.4364151,13.3292551 L29.2545536,18.7860468 L21.9933862,18.774223 C21.5659165,18.7860468 20.8916058,19.0535932 20.4037418,19.653579 L17.8469576,23.2595435 C17.5810011,23.5490876 17.4186568,23.9340464 17.4186568,24.3569512 C17.4186568,25.25693 18.1536388,25.986427 19.0603843,25.986427 C19.6033789,25.986427 20.084594,25.724655 20.3835181,25.3212731 L20.4045729,25.3088995 L22.7095296,22.2668997 L31.6825151,22.2668997 L33.5370078,25.1485916 C33.8145999,25.6479382 34.3498375,25.986427 34.965139,25.986427 C35.8649586,25.986427 36.5946768,25.2621545 36.5946768,24.368775 C36.5946768,24.031661 36.4907875,23.7187444 36.3129291,23.4597221 C36.297969,23.4248009 36.2813468,23.3926293 36.2627852,23.3640324" id="Fill-6" fill="#00BCD4"></path>
                        <path d="M14.2508375,10.6357958 C14.2392019,10.6357958 14.2272892,10.6357958 14.2159307,10.6357958 L1.70350699,10.6357958 C0.762685762,10.6357958 -1.30903505e-13,11.3929121 -1.30903505e-13,12.3267123 C-1.30903505e-13,12.6668509 0.101950004,12.9825172 0.275929901,13.2475888 C0.512797437,13.5800283 0.845797178,13.8184278 1.26938836,13.9603126 C1.40818443,13.9966088 1.55335237,14.0177815 1.70350699,14.0177815 L9.58163812,14.0177815 L14.0502619,14.0177815 L14.3256378,14.0172315 L14.3519564,14.0172315 C14.3968365,14.0175065 14.4411626,14.0197063 14.4849346,14.0241058 C15.1797461,14.0947733 15.7216325,14.677161 15.7216325,15.3854853 C15.7216325,16.1353301 15.1143651,16.7432901 14.3613757,16.753464 L14.247236,16.754289 L9.57582032,16.754289 L1.75143457,16.754289 L1.62039558,16.754289 C0.608929642,16.754289 -1.30903505e-13,17.5352055 -1.30903505e-13,18.4244604 L-1.30903505e-13,24.2708854 C-1.30903505e-13,25.1947867 0.755205734,25.9446315 1.68605359,25.9446315 C2.59501545,25.9446315 3.3358152,25.2280581 3.36933681,24.3338537 L3.36933681,24.2079172 L3.36933681,20.1548504 L14.2536079,20.1548504 L14.3007043,20.1521007 C14.3020895,20.1521007 14.3031977,20.1518258 14.3043058,20.1515508 C16.8904561,20.0817083 18.965194,17.979008 18.965194,15.3956592 C18.965194,12.7941623 16.8616441,10.6782635 14.2508375,10.6357958" id="Fill-8" fill="#00BCD4"></path>
                        <path d="M2.01085301,4.83574306 L3.65535089,4.83574306 L2.83504122,2.33983487 L2.01085301,4.83574306 Z M3.532346,1.16543541 L5.66249159,7.02945855 L4.38673136,7.02945855 L3.98474914,5.82398741 L1.69059702,5.82398741 L1.30496005,7.02945855 L0.0233820117,7.02945855 L2.12748603,1.16543541 L3.532346,1.16543541 Z" id="Fill-10" fill="#FFFFFF"></path>
                        <path d="M9.97298208,5.9699968 C10.6392586,5.9699968 10.9545279,5.74672067 10.9545279,5.21052799 C10.9545279,4.63831416 10.6392586,4.434011 9.96605612,4.434011 L8.53626273,4.434011 L8.53626273,5.9699968 L9.97298208,5.9699968 Z M9.92477745,3.43174314 C10.5071114,3.43174314 10.788028,3.24448816 10.788028,2.79408631 C10.788028,2.33983487 10.5015707,2.18420151 9.9156352,2.18420151 L8.53626273,2.18420151 L8.53626273,3.43174314 L9.92477745,3.43174314 Z M7.36854733,1.16543541 L10.154719,1.16543541 C11.3789502,1.16543541 12.011151,1.69475383 12.011151,2.64807692 C12.011151,3.23486419 11.7825946,3.63577133 11.3055351,3.85629776 C11.9222218,4.10129657 12.2189296,4.55719783 12.2189296,5.24517429 C12.2189296,6.361005 11.4615075,7.02945855 10.0655128,7.02945855 L7.36854733,7.02945855 L7.36854733,1.16543541 Z" id="Fill-12" fill="#FFFFFF"></path>
                        <path d="M15.40797,4.83574306 L17.0524679,4.83574306 L16.2313271,2.33983487 L15.40797,4.83574306 Z M16.9283549,1.16543541 L19.0596086,7.02945855 L17.7852336,7.02945855 L17.3813121,5.82398741 L15.087714,5.82398741 L14.7012459,7.02945855 L13.4216072,7.02945855 L15.5232178,1.16543541 L16.9283549,1.16543541 Z" id="Fill-14" fill="#FFFFFF"></path>
                        <polygon id="Fill-16" fill="#EB2227" points="19.6085872 2.46621136 20.749984 2.46621136 20.749984 -3.30677885e-13 19.6085872 -3.30677885e-13"></polygon>
                    </g>
                </g>
            </g>
        </g>
    </g>
</svg>