<?xml version="1.0" encoding="utf-8"?>
<!-- Generator: Adobe Illustrator 22.0.0, SVG Export Plug-In . SVG Version: 6.00 Build 0)  -->
<svg version="1.1" id="Layer_1" xmlns="http://www.w3.org/2000/svg" xmlns:xlink="http://www.w3.org/1999/xlink" x="0px" y="0px"
	 viewBox="0 0 1032.4 263" style="enable-background:new 0 0 1032.4 263;" xml:space="preserve">
<style type="text/css">
	.st0{fill:#000000;}
	.st1{fill:none;}
</style>
<path class="st0" d="M259.5,140.6c-57.9,21.6-97.2,61.2-118.4,119.6c-0.3-1-0.6-1.6-0.6-2.1c0-27.8-0.2-55.6,0.1-83.4
	c0.2-18.5,14.4-33.6,32.6-33.9C201.9,140.3,230.7,140.6,259.5,140.6z"/>
<path class="st0" d="M5.8,124.4C63.5,102.6,102.7,63,124.1,4c0.1,2.5,0.2,3.8,0.2,5.2c0,26.3,0,52.7,0,79c0,21.5-14.5,36.1-36,36.2
	C60.8,124.5,33.3,124.4,5.8,124.4z"/>
<path class="st0" d="M124.3,259.8C102.8,202,63.5,162.3,5.7,140.5c1.3,0,2.5,0,3.8,0c26,0,52,0,78,0c22.5,0,36.8,14.4,36.8,36.9
	c0,25.8,0,51.7,0,77.5C124.3,256.6,124.3,258.2,124.3,259.8z"/>
<path class="st0" d="M140.5,5.1c21.7,57.9,61.1,97.7,119,119.3c-1.9,0-3.8,0-5.7,0c-24.7,0-49.3,0-74,0c-24,0-39.4-15.5-39.4-39.4
	C140.4,58.4,140.5,31.8,140.5,5.1z"/>
<g>
	<path class="st0" d="M398.5,209.1l-40.7-66.7h-17.7v66.7h-22.5V58.7h22.5V123h17.7l41.3-64.3h24.3l-47.2,72.6l47.9,77.8
		L398.5,209.1L398.5,209.1z"/>
	<path class="st0" d="M453.4,204.7c-7.4-4.1-12.1-11.1-14.1-21s-3-26.5-3-49.8s1-39.9,3-49.8s6.7-16.9,14.1-21
		c7.4-4.1,19.8-6.1,37.2-6.1c17.5,0,30,2,37.4,6.1s12.2,11.1,14.2,21s3.1,26.5,3.1,49.8s-1,39.9-3.1,49.8c-2,9.9-6.8,16.9-14.2,21
		s-19.9,6.1-37.4,6.1C473.2,210.9,460.8,208.8,453.4,204.7z M512.9,188.6c3.9-1.9,6.5-6.5,7.8-13.9c1.2-7.4,1.9-21,1.9-40.8
		s-0.6-33.4-1.9-40.8c-1.2-7.4-3.8-12-7.8-13.9c-3.9-1.9-11.4-2.8-22.3-2.8c-10.9,0-18.3,0.9-22.2,2.8s-6.4,6.5-7.7,13.9
		c-1.2,7.4-1.9,21-1.9,40.8s0.6,33.4,1.9,40.8c1.2,7.4,3.8,12,7.7,13.9s11.3,2.8,22.2,2.8S508.9,190.5,512.9,188.6z"/>
	<path class="st0" d="M588.3,204.7c-7.4-4.1-12.1-11.1-14.1-21s-3-26.5-3-49.8s1-39.9,3-49.8s6.7-16.9,14.1-21
		c7.4-4.1,19.8-6.1,37.2-6.1c17.5,0,30,2,37.4,6.1s12.2,11.1,14.2,21s3.1,26.5,3.1,49.8s-1,39.9-3.1,49.8c-2,9.9-6.8,16.9-14.2,21
		s-19.9,6.1-37.4,6.1C608.1,210.9,595.7,208.8,588.3,204.7z M647.8,188.6c3.9-1.9,6.5-6.5,7.8-13.9c1.2-7.4,1.9-21,1.9-40.8
		s-0.6-33.4-1.9-40.8c-1.2-7.4-3.8-12-7.8-13.9c-3.9-1.9-11.4-2.8-22.3-2.8c-10.9,0-18.3,0.9-22.2,2.8s-6.4,6.5-7.7,13.9
		c-1.2,7.4-1.9,21-1.9,40.8s0.6,33.4,1.9,40.8c1.2,7.4,3.8,12,7.7,13.9s11.3,2.8,22.2,2.8C636.4,191.4,643.8,190.5,647.8,188.6z"/>
	<path class="st0" d="M826.4,209.1V94.3h-0.9l-37.8,114.8H770L732.4,94.3h-0.9v114.8h-21.4V58.7H742l36.7,112.6h1.3l36.7-112.6h31.6
		v150.4H826.4z"/>
	<path class="st0" d="M882.8,58.7h56.8c11.4,0,20,2,25.9,5.9s9.8,9.3,11.7,16.1c1.9,6.8,2.8,15.6,2.8,26.6c0,10.5-0.9,19.1-2.8,25.9
		s-5.8,12.2-11.7,16.3c-5.9,4.1-14.6,6.1-26.1,6.1h-34.1v53.6h-22.5V58.7z M932,136.3c7.7,0,13.4-0.9,17.1-2.7c3.6-1.8,6-4.7,7-8.5
		c1-3.9,1.5-9.8,1.5-17.8s-0.5-14-1.5-17.8c-1-3.9-3.3-6.7-6.9-8.5s-9.2-2.7-16.9-2.7h-27v58.2H932V136.3z"/>
	<path class="st0" d="M1005.9,209.1V58.7h22.5v150.4H1005.9z"/>
</g>
<rect x="784.8" y="-476.5" class="st1" width="187.9" height="52"/>
<text transform="matrix(1 0 0 1 784.8797 -440.0933)" style="font-family:'SairaSemiCondensed-Medium'; font-size:49px;">KOOMPI</text>
</svg>
