<?xml version="1.0" encoding="utf-8"?>
<!-- Generator: Adobe Illustrator 22.0.0, SVG Export Plug-In . SVG Version: 6.00 Build 0)  -->
<svg version="1.1" id="Layer_1" xmlns="http://www.w3.org/2000/svg" xmlns:xlink="http://www.w3.org/1999/xlink" x="0px" y="0px"
	 viewBox="0 0 1040 935.5" style="enable-background:new 0 0 1040 935.5;" xml:space="preserve">
<style type="text/css">
	.st0{fill:#FFFFFF;}
	.st1{fill:#555555;}
</style>
<g>
	<circle class="st0" cx="608.4" cy="423.2" r="404.4"/>
	<path class="st0" d="M6.3,578.7l242.3,9.6c50,2,88.9,44.2,87,94.2L326,924.8l-4.7-16.3c-43.6-151.3-157-272.7-305.1-326.3
		L6.3,578.7z"/>
	<path class="st1" d="M788.4,281.6l36.7-35.1v-7.7h-127l-90.5,225.4l-103-225.4H371.4v7.7l42.8,51.5c4.2,3.8,6.3,9.4,5.8,15v202.7
		c1.3,7.3-1.1,14.8-6.2,20.1l-48.3,58.5v7.6h136.8v-7.5L454,536c-5.3-5.4-7.7-12.7-6.6-20.1V340.6l120.1,261.6h14l103.3-261.6v208.3
		c0,5.5,0,6.6-3.6,10.2L644,595v7.7h180.3V595l-35.8-35.1c-3.2-2.4-4.8-6.3-4.1-10.2V291.9C783.7,288,785.4,284,788.4,281.6
		L788.4,281.6z"/>
</g>
</svg>
