<?xml version="1.0" encoding="utf-8"?>
<!-- Generator: Adobe Illustrator 22.0.0, SVG Export Plug-In . SVG Version: 6.00 Build 0)  -->
<svg version="1.1" id="Layer_1" xmlns="http://www.w3.org/2000/svg" xmlns:xlink="http://www.w3.org/1999/xlink" x="0px" y="0px"
	 viewBox="0 0 1040 952" style="enable-background:new 0 0 1040 952;" xml:space="preserve">
<style type="text/css">
	.st0{fill:#FFFFFF;}
	.st1{fill:#555555;}
</style>
<g>
	<circle class="st0" cx="429.1" cy="432" r="403.9"/>
	<path class="st0" d="M1006.8,588.3l-242,12.5c-50,2.6-88.3,45.1-85.7,95.1l12.5,242l4.5-16.4c41.8-151.7,153.6-274.3,300.8-329.6
		L1006.8,588.3z"/>
	<g>
		<g>
			<path class="st1" d="M731.2,262.4c-20.4,8.9-42,14.8-64.7,17.7c23.3-13.9,41-35.7,49.3-62c-21.7,12.9-45.7,22-71.2,27.2
				c-20.6-21.9-50-35.5-81.9-35.5c-62.1,0-112.1,50.4-112.1,112.2c0,8.9,0.7,17.4,2.6,25.6c-93.2-4.5-175.7-49.2-231.1-117.4
				c-9.7,16.8-15.3,36-15.3,56.7c0,38.8,20,73.3,49.9,93.2c-18.1-0.3-35.7-5.6-50.7-13.9c0,0.3,0,0.7,0,1.3
				c0,54.5,38.8,99.8,89.9,110.2c-9.1,2.5-19.1,3.7-29.4,3.7c-7.1,0-14.4-0.4-21.2-1.9c14.5,44.4,55.7,77,104.8,78.1
				c-38.2,29.8-86.6,47.9-139.1,47.9c-9.2,0-18.1-0.4-26.9-1.6c49.7,32,108.5,50.3,172,50.3c206.4,0,319.2-171,319.2-319.1
				c0-4.9-0.2-9.8-0.4-14.5C697.2,304.8,715.9,285.1,731.2,262.4z"/>
		</g>
	</g>
</g>
</svg>
