<?xml version="1.0" encoding="utf-8"?>
<!-- Generator: Adobe Illustrator 22.0.0, SVG Export Plug-In . SVG Version: 6.00 Build 0)  -->
<svg version="1.1" id="Layer_1" xmlns="http://www.w3.org/2000/svg" xmlns:xlink="http://www.w3.org/1999/xlink" x="0px" y="0px"
	 viewBox="0 0 2232 1512" style="enable-background:new 0 0 2232 1512;" xml:space="preserve">
<style type="text/css">
	.st0{fill:#FFFFFF;}
	.st1{fill:#555555;}
</style>
<circle class="st0" cx="1150.5" cy="799" r="450.3"/>
<g>
	<path class="st1" d="M1261.1,517.4l-73-0.1c-82.1,0-135.1,54.4-135.1,138.6v63.9h-73.4c-6.3,0-11.5,5.1-11.5,11.5V824
		c0,6.3,5.1,11.5,11.5,11.5h73.4v233.7c0,6.3,5.1,11.5,11.5,11.5h95.8c6.3,0,11.5-5.1,11.5-11.5V835.4h85.9
		c6.3,0,11.5-5.1,11.5-11.5l0-92.6c0-3-1.2-6-3.4-8.1c-2.2-2.2-5.1-3.4-8.1-3.4h-85.9v-54.2c0-26,6.2-39.3,40.1-39.3l49.2,0
		c6.3,0,11.5-5.1,11.5-11.5v-86C1272.5,522.6,1267.4,517.5,1261.1,517.4z"/>
</g>
<path class="st1" d="M904.6,197l8,270c1.7,55.7-42.2,102.2-97.9,103.9l-270,8l17.7-6.5c164.7-60.1,290.7-195.5,338.9-364.1
	L904.6,197z"/>
</svg>
