<?xml version="1.0" encoding="utf-8"?>
<!-- Generator: Adobe Illustrator 22.0.0, SVG Export Plug-In . SVG Version: 6.00 Build 0)  -->
<svg version="1.1" id="Layer_1" xmlns="http://www.w3.org/2000/svg" xmlns:xlink="http://www.w3.org/1999/xlink" x="0px" y="0px"
	 viewBox="0 0 2232 1512" style="enable-background:new 0 0 2232 1512;" xml:space="preserve">
<style type="text/css">
	.st0{fill:#FFFFFF;}
	.st1{fill:#555555;}
</style>
<circle class="st0" cx="1034.7" cy="787" r="441.9"/>
<path class="st1" d="M1290.1,194.4l-10.7,264.8c-2.2,54.6,40.3,100.7,95,102.9l264.8,10.7l-17.3-6.5
	c-161-60.7-283.2-194.8-328.7-360.8L1290.1,194.4z"/>
<path class="st1" d="M900.8,874.3l-10.9,153.2c15.6,0,22.3-6.7,30.4-14.7l73.1-69.8l151.4,110.9c27.8,15.5,47.3,7.3,54.8-25.5
	l99.4-465.8l0,0c8.8-41.1-14.8-57.1-41.9-47L673,739.2c-39.9,15.5-39.3,37.7-6.8,47.8l149.4,46.5l347-217.1c16.3-10.8,31.2-4.8,19,6
	L900.8,874.3z"/>
</svg>
