<?xml version="1.0" encoding="utf-8"?>
<!-- Generator: Adobe Illustrator 22.0.0, SVG Export Plug-In . SVG Version: 6.00 Build 0)  -->
<svg version="1.1" id="Layer_1" xmlns="http://www.w3.org/2000/svg" xmlns:xlink="http://www.w3.org/1999/xlink" x="0px" y="0px"
	 viewBox="0 0 2232 1512" style="enable-background:new 0 0 2232 1512;" xml:space="preserve">
<style type="text/css">
	.st0{fill:#FFFFFF;}
	.st1{fill:#555555;}
</style>
<g>
	<circle class="st0" cx="1081.9" cy="769.3" r="384.8"/>
	<path class="st1" d="M1632.2,918.2l-230.5,11.9c-47.6,2.5-84.1,43-81.6,90.6l11.9,230.5l4.3-15.6c39.8-144.5,146.3-261.3,286.6-314
		L1632.2,918.2z"/>
	<g>
		<g>
			<path class="st1" d="M1369.7,607.7c-19.4,8.5-40,14.1-61.6,16.9c22.2-13.2,39.1-34,47-59.1c-20.7,12.3-43.5,21-67.8,25.9
				c-19.6-20.9-47.6-33.8-78-33.8c-59.2,0-106.8,48-106.8,106.9c0,8.5,0.7,16.6,2.5,24.4c-88.8-4.3-167.4-46.9-220.2-111.8
				c-9.2,16-14.6,34.3-14.6,54c0,37,19.1,69.8,47.5,88.8c-17.2-0.3-34-5.3-48.3-13.2c0,0.3,0,0.7,0,1.2c0,51.9,37,95.1,85.6,105
				c-8.7,2.4-18.2,3.5-28,3.5c-6.8,0-13.7-0.4-20.2-1.8c13.8,42.3,53.1,73.4,99.8,74.4c-36.4,28.4-82.5,45.6-132.5,45.6
				c-8.8,0-17.2-0.4-25.6-1.5c47.3,30.5,103.4,47.9,163.9,47.9c196.6,0,304.1-162.9,304.1-304c0-4.7-0.2-9.3-0.4-13.8
				C1337.3,648.1,1355.1,629.3,1369.7,607.7z"/>
		</g>
	</g>
</g>
<circle class="st0" cx="2428.3" cy="1745.9" r="404.4"/>
<path class="st1" d="M1826.3,1901.4l242.3,9.6c50,2,88.9,44.2,87,94.2l-9.6,242.3l-4.7-16.3c-43.6-151.3-157-272.7-305.1-326.3
	L1826.3,1901.4z"/>
<path class="st1" d="M2608.3,1604.4l36.7-35.1v-7.7h-127l-90.5,225.4l-103-225.4h-133.2v7.7l42.8,51.5c4.2,3.8,6.3,9.4,5.8,15v202.7
	c1.3,7.3-1.1,14.8-6.2,20.1l-48.3,58.5v7.6h136.8v-7.7l-48.3-58.4c-5.3-5.4-7.7-12.7-6.6-20.1v-175.3l120.1,261.6h14l103.3-261.6
	v208.3c0,5.5,0,6.6-3.6,10.2l-37.2,35.9v7.7h180.3v-7.7l-35.8-35.1c-3.2-2.4-4.8-6.3-4.1-10.2v-257.9
	C2603.6,1610.7,2605.3,1606.7,2608.3,1604.4L2608.3,1604.4z"/>
</svg>
